<?xml version="1.0" encoding="utf-8"?>
<!-- Generator: Adobe Illustrator 16.0.0, SVG Export Plug-In . SVG Version: 6.00 Build 0)  -->
<!DOCTYPE svg PUBLIC "-//W3C//DTD SVG 1.1//EN" "http://www.w3.org/Graphics/SVG/1.1/DTD/svg11.dtd">
<svg version="1.1" id="Layer_1" xmlns="http://www.w3.org/2000/svg" xmlns:xlink="http://www.w3.org/1999/xlink" x="0px" y="0px"
	 width="1350.664px" height="1226px" viewBox="0 0 1350.664 1226" enable-background="new 0 0 1350.664 1226" xml:space="preserve">
<g>
	<g>
		
			<line fill="none" stroke="#B0D5F7" stroke-width="1.8871" stroke-linecap="round" stroke-linejoin="round" stroke-miterlimit="10" x1="1108.504" y1="2700.617" x2="2189.219" y2="2700.617"/>
		<rect x="1154.711" y="2105" fill="#FBFBFD" width="951.422" height="592.564"/>
		<rect x="1154.711" y="2105" fill="#2D61BB" width="242.037" height="592.564"/>
		<path fill="#61ABFD" d="M2083.604,2047.791H1177.24c-12.442,0-22.529,10.088-22.529,22.529V2105h951.422v-34.68
			C2106.133,2057.879,2096.047,2047.791,2083.604,2047.791z"/>
		<g>
			<circle fill="#DAEAFF" cx="1218.662" cy="2076.396" r="11.549"/>
			<circle fill="#F5DD45" cx="1252.885" cy="2076.396" r="11.55"/>
			<circle fill="#DAEAFF" cx="1287.108" cy="2076.396" r="11.549"/>
		</g>
		<g>
			<circle fill="#61ABFD" cx="1275.729" cy="2246.123" r="75.43"/>
			<g>
				<circle fill="#2D61BB" cx="1276.01" cy="2226.683" r="20.136"/>
				<path fill="#2D61BB" d="M1231.84,2279.955l7.229-13.451c4.146-7.717,12.199-12.53,20.961-12.53h29.312
					c7.908,0,15.303,3.932,19.729,10.483l10.461,15.498H1231.84z"/>
			</g>
		</g>
		<rect x="1834.918" y="2170.691" fill="#DAEAFF" width="229.36" height="225.841"/>
		<rect x="1834.918" y="2438.143" fill="#DAEAFF" width="229.36" height="201.36"/>
		<rect x="1956.309" y="2170.691" fill="#447FD3" width="42.928" height="67.688"/>
		<g>
			<g>
				<circle fill="#DAEAFF" cx="1474.397" cy="2224.793" r="41.407"/>
				
					<line fill="none" stroke="#DAEAFF" stroke-width="4.4631" stroke-linecap="round" stroke-linejoin="round" stroke-miterlimit="10" x1="1546.811" y1="2194.861" x2="1702.084" y2="2194.861"/>
				
					<line fill="none" stroke="#DAEAFF" stroke-width="4.4631" stroke-linecap="round" stroke-linejoin="round" stroke-miterlimit="10" x1="1546.811" y1="2226.42" x2="1624.449" y2="2226.42"/>
				
					<line fill="none" stroke="#DAEAFF" stroke-width="4.4631" stroke-linecap="round" stroke-linejoin="round" stroke-miterlimit="10" x1="1546.811" y1="2257.977" x2="1702.084" y2="2257.977"/>
			</g>
			<g>
				<path fill="#DAEAFF" d="M1515.803,2388.043c0,22.868-18.537,41.41-41.406,41.41s-41.404-18.542-41.404-41.41
					c0-22.867,18.535-41.404,41.404-41.404S1515.803,2365.176,1515.803,2388.043z"/>
				
					<line fill="none" stroke="#DAEAFF" stroke-width="4.4631" stroke-linecap="round" stroke-linejoin="round" stroke-miterlimit="10" x1="1546.811" y1="2358.112" x2="1702.084" y2="2358.112"/>
				
					<line fill="none" stroke="#DAEAFF" stroke-width="4.4631" stroke-linecap="round" stroke-linejoin="round" stroke-miterlimit="10" x1="1546.811" y1="2389.668" x2="1624.449" y2="2389.668"/>
				
					<line fill="none" stroke="#DAEAFF" stroke-width="4.4631" stroke-linecap="round" stroke-linejoin="round" stroke-miterlimit="10" x1="1546.811" y1="2421.229" x2="1702.084" y2="2421.229"/>
			</g>
			<g>
				<circle fill="#DAEAFF" cx="1474.397" cy="2551.296" r="41.407"/>
				
					<line fill="none" stroke="#DAEAFF" stroke-width="4.4631" stroke-linecap="round" stroke-linejoin="round" stroke-miterlimit="10" x1="1546.811" y1="2521.361" x2="1702.084" y2="2521.361"/>
				
					<line fill="none" stroke="#DAEAFF" stroke-width="4.4631" stroke-linecap="round" stroke-linejoin="round" stroke-miterlimit="10" x1="1546.811" y1="2552.922" x2="1624.449" y2="2552.922"/>
				
					<line fill="none" stroke="#DAEAFF" stroke-width="4.4631" stroke-linecap="round" stroke-linejoin="round" stroke-miterlimit="10" x1="1546.811" y1="2584.479" x2="1702.084" y2="2584.479"/>
			</g>
		</g>
		<path fill="#61ABFD" d="M1351.158,2568.305H1200.3c-3.961,0-7.172-3.211-7.172-7.171c0-3.961,3.211-7.174,7.172-7.174h150.858
			c3.963,0,7.172,3.213,7.172,7.174C1358.33,2565.094,1355.121,2568.305,1351.158,2568.305z"/>
		<path fill="#61ABFD" d="M1351.158,2604.906H1200.3c-3.961,0-7.172-3.213-7.172-7.17c0-3.96,3.211-7.171,7.172-7.171h150.858
			c3.963,0,7.172,3.211,7.172,7.171C1358.33,2601.693,1355.121,2604.906,1351.158,2604.906z"/>
	</g>
	<g>
		<path fill="#FFFFFF" d="M1053.6,1978.104c0,0,10.428-44.306,71.672-36.485c0,0,15.34-47.937,76.885-43.002
			c62.951,5.044,66.459,50.819,66.459,50.819s35.185-15.638,58.642-1.303c23.454,14.334,29.973,29.971,29.973,29.971H1053.6z"/>
		<path fill="#FFFFFF" d="M1594.824,1904.039c0,0,3.08-15.526,21.188-12.787c0,0,4.623-17.813,22.731-15.071
			c18.107,2.739,19.648,17.812,19.648,17.812s10.4-5.479,17.338-0.457c6.936,5.021,8.859,10.504,8.859,10.504H1594.824z"/>
		<path fill="#FFFFFF" d="M1999.565,1983.299c0,0,6.025-30.363,41.432-25.004c0,0,9.039-34.832,44.447-29.472
			c35.402,5.355,38.418,34.829,38.418,34.829s20.338-10.72,33.895-0.896c13.562,9.823,17.326,20.538,17.326,20.538
			L1999.565,1983.299L1999.565,1983.299z"/>
	</g>
	<g>
		<polygon fill="#2D61BB" points="2099.406,2812.041 2025.66,2439.293 2032.299,2437.977 2106.047,2810.722 		"/>
		<polygon fill="#2D61BB" points="1997.627,2812.041 1923.885,2439.293 1930.522,2437.977 2004.268,2810.722 		"/>
		<rect x="1993.055" y="2772.845" fill="#2D61BB" width="101.775" height="6.765"/>
		<rect x="1985.746" y="2734.719" fill="#2D61BB" width="101.775" height="6.762"/>
		<rect x="1977.321" y="2696.594" fill="#2D61BB" width="101.777" height="6.764"/>
		<rect x="1972.237" y="2658.471" fill="#2D61BB" width="101.773" height="6.76"/>
		<rect x="1961.957" y="2620.345" fill="#2D61BB" width="101.775" height="6.765"/>
		<rect x="1954.278" y="2582.219" fill="#2D61BB" width="101.773" height="6.763"/>
		<rect x="1948.457" y="2544.094" fill="#2D61BB" width="101.775" height="6.764"/>
		<rect x="1941.879" y="2505.971" fill="#2D61BB" width="101.776" height="6.762"/>
		<rect x="1934.198" y="2467.842" fill="#2D61BB" width="101.775" height="6.765"/>
	</g>
	<g>
		<g>
			<path fill="#61ABFD" d="M2161.903,2430.86l-0.106,0.007c12.602-13.16,6.676-27.697,4.396-32.123
				c-0.008-0.007-0.012-0.014-0.018-0.022c-0.438-0.851-0.756-1.36-0.756-1.36l0.112,0.021c-3.651-7.197-5.752-15.312-5.752-23.937
				c0-14.655,5.938-27.919,15.539-37.521c8.824-11.68,2.146-27.205,2.146-27.205h0.02c-1.377-3.904-2.166-8.092-2.166-12.469
				c0-20.723,16.8-37.521,37.521-37.521c20.727,0,37.521,16.798,37.521,37.521c0,4.377-0.787,8.562-2.166,12.469h0.021
				c0,0-6.682,15.525,2.145,27.205c9.603,9.604,15.543,22.865,15.543,37.521c0,8.615-2.102,16.727-5.748,23.923l0.043-0.01
				c0,0-0.065,0.105-0.168,0.271c-0.299,0.587-0.598,1.171-0.92,1.746c-2.356,4.871-6.896,17.872,3.482,30.056
				c0.32,0.379,0.646,0.743,0.959,1.127c0.096,0.104,0.166,0.209,0.264,0.312l-0.029-0.004
				c8.973,11.188,14.373,25.371,14.373,40.828c0,36.071-29.246,65.314-65.318,65.314c-36.073,0-65.313-29.243-65.313-65.314
				C2147.524,2456.23,2152.92,2442.049,2161.903,2430.86z"/>
			<path fill="#2D61BB" d="M2193.637,2466.105l16.002,15.827v-55.616l-19.646-19.438c-1.021-1.009-1.029-2.649-0.021-3.67
				c1.012-1.021,2.649-1.024,3.668-0.021l16.002,15.825v-76.72c0-1.437,1.159-2.597,2.594-2.597s2.596,1.162,2.596,2.597v46.231
				l15.56-15.468c1.016-1.012,2.656-1.012,3.668,0.011c1.012,1.019,1.012,2.656-0.008,3.668l-19.22,19.106v55.859l17.197-17.371
				c1.002-1.021,2.646-1.023,3.67-0.021c1.017,1.008,1.027,2.65,0.019,3.669l-20.886,21.099v148.187
				c0,1.436-1.162,2.596-2.596,2.596s-2.594-1.16-2.594-2.596v-118.034l-19.646-19.438c-1.021-1.01-1.028-2.647-0.021-3.67
				C2190.979,2465.104,2192.619,2465.102,2193.637,2466.105z"/>
		</g>
		
			<line fill="none" stroke="#B0D5F7" stroke-width="1.8871" stroke-linecap="round" stroke-linejoin="round" stroke-miterlimit="10" x1="2177.959" y1="2609.864" x2="2283.334" y2="2609.864"/>
	</g>
	<g>
		<g>
			<path fill="#FBFBFD" d="M1979.203,2294.262l-0.178-23.521c-0.012-2.032-2.336-3.731-5.066-3.709l-24.928,0.188
				c-5.524,0.039-10.047-3.76-10.08-8.461l-0.065-8.055c-0.031-4.709,4.436-8.569,9.959-8.611l14.782-0.112l0.027,3.914
				l-14.783,0.112c-3.364,0.024-6.092,2.117-6.073,4.669l0.063,8.055c0.021,2.55,2.775,4.608,6.143,4.575l24.929-0.188
				c4.938-0.034,8.973,3.372,9.008,7.595l0.176,23.521L1979.203,2294.262z"/>
			<path fill="#2D61BB" d="M1996.801,2254.98l-37.258,0.281c-5.834,0.044-10.603-4.649-10.648-10.488l0,0
				c-0.045-5.836,4.654-10.604,10.488-10.646l37.258-0.282c5.838-0.045,10.605,4.65,10.648,10.487l0,0
				C2007.334,2250.17,2002.637,2254.938,1996.801,2254.98z"/>
			<path fill="#2F282F" d="M1984.727,2339.732l-7.102,0.053c-2.095,0.018-3.806-1.667-3.818-3.76l1.158-43.45
				c-0.019-2.093,1.666-3.802,3.76-3.816l4.131-0.031c2.094-0.019,3.801,1.668,3.814,3.763l1.813,43.428
				C1988.502,2338.007,1986.819,2339.718,1984.727,2339.732z"/>
		</g>
		<g>
			<g>
				<circle fill="#FE9764" cx="1984.895" cy="2317.59" r="13.471"/>
			</g>
			<rect x="1819.065" y="2345.818" fill="#FE9764" width="25.307" height="33.988"/>
			<g>
				<rect x="1797.895" y="2811.988" fill="#FE9764" width="16.879" height="16.986"/>
				<rect x="1787.321" y="2805.004" fill="#1C181C" width="35.221" height="12.912"/>
				<rect x="1851.045" y="2811.988" fill="#FE9764" width="16.879" height="16.986"/>
				<polygon fill="#2F282F" points="1835.317,2509.074 1830.504,2509.074 1784.252,2509.074 1792.678,2805.004 1819.324,2805.004 
					1823.471,2560.823 1842.348,2560.823 1846.494,2805.004 1873.145,2805.004 1881.565,2509.074 				"/>
				<rect x="1843.276" y="2805.004" fill="#1C181C" width="35.228" height="12.912"/>
			</g>
			<g>
				<path fill="#FE9764" d="M1806.526,2325.385c0,4.646-3.77,8.408-8.408,8.408c-4.645,0-8.412-3.766-8.412-8.408
					c0-4.644,3.769-8.409,8.412-8.409C1802.758,2316.975,1806.526,2320.74,1806.526,2325.385z"/>
				<circle fill="#FE9764" cx="1865.711" cy="2325.384" r="8.409"/>
				<circle fill="#2F282F" cx="1831.885" cy="2318.133" r="34.57"/>
			</g>
			<path fill="#2D61BB" d="M1881.565,2509.074h-97.311l-3.744-107.367c0-17.994,11.93-32.586,29.926-32.586h44.947
				c17.996,0,29.928,14.592,29.928,32.586L1881.565,2509.074z"/>
			<path fill="#2D61BB" d="M1808.989,2403.941l-59.646,69.562l2.721-5.174c0.381-1.135,0.346-3.031-0.205-4.324
				c-0.526-1.326-1.262-2.059-1.822-2.47c-1.102-0.789-2.135-0.795-2.85-0.562l2.275-0.504l50.063-7.008
				c8.049-1.127,15.486,4.485,16.613,12.533c1.127,8.051-4.484,15.483-12.535,16.612l-50.062,7.007l2.279-0.507
				c-7.461,2.299-16.178,1.235-23.014-3.711c-3.414-2.464-6.504-6-8.334-10.606c-1.879-4.562-2.062-10.182-0.668-14.697
				c0.57-1.856,1.453-3.538,2.574-4.992l0.141-0.186l58.893-74.021c5.761-7.447,13.609-7.295,21.058-1.539
				c7.448,5.758,8.819,16.463,3.063,23.911C1809.369,2403.485,1809.162,2403.739,1808.989,2403.941z"/>
			<g>
				<path fill="#2346AE" d="M1931.656,2396.677c0,0.022-0.014,0.046-0.014,0.065c0,0.146-0.033,0.28-0.008,0.42
					c0,0,0.021,0.127,0.021,0.046v-0.316L1931.656,2396.677L1931.656,2396.677z"/>
				<path fill="#2346AE" d="M1936.696,2392.879c-0.008-0.002-0.021,0-0.029,0l0.107,0.029
					C1936.801,2392.916,1936.719,2392.886,1936.696,2392.879z"/>
				<path fill="#2D61BB" d="M1946.518,2420.969c3.758-1.364,7.238-3.598,10.051-6.517c1.396-1.47,2.633-3.069,3.666-4.782
					c0.521-0.852,0.947-1.735,1.383-2.625l0.287-0.617l0.123-0.296l0.244-0.587l4.008-9.362l8.035-18.722
					c4.604-10.462,12.644-28.34,18.49-41.082c0.99-2.153-0.031-4.684-2.238-5.562l-20.436-8.163
					c-2.086-0.832-4.447,0.129-5.336,2.188c-5.527,12.82-13.375,30.252-17.91,40.535l-8.387,18.563l-8.638,18.44
					c1.756,11.344,11.129,8.239,13.752,19.47C1944.602,2421.618,1945.573,2421.322,1946.518,2420.969z M1940.289,2392.3
					c0.021,0.019,0.084,0.075,0.06,0.057l-0.082-0.069C1940.272,2392.291,1940.283,2392.293,1940.289,2392.3z"/>
				<path fill="#2D61BB" d="M1939.194,2393.672l-7.594-2.248l-3.09-0.888l-19.56-5.729c-13.041-3.808-41.518-13.177-41.938-13.271
					c-10.207-2.318-18.687,5.864-19.883,16.563c-1.005,9.012,5.454,17.188,14.295,19.196c13.049,2.967,26.098,5.941,39.094,9.09
					l19.807,4.791l4.945,1.22l2.473,0.612l1.627,0.388c0.982,0.199,1.955,0.409,2.959,0.519c7.091,0.896,14.421-1.306,19.882-5.662
					C1945.084,2409.189,1945.586,2403.207,1939.194,2393.672z M1931.637,2397.164c-0.027-0.141,0.008-0.271,0.008-0.42
					c0-0.021,0.012-0.043,0.012-0.065l0.004,0.216v0.315C1931.656,2397.291,1931.637,2397.164,1931.637,2397.164z"/>
			</g>
			<polygon fill="none" stroke="#545054" stroke-width="0.6348" stroke-miterlimit="10" points="1844.024,2523.545 
				1870.295,2523.545 1870.295,2540.9 1857.158,2550.32 1844.024,2541.221 			"/>
			<polygon fill="none" stroke="#545054" stroke-width="0.6348" stroke-miterlimit="10" points="1795.526,2523.545 
				1821.795,2523.545 1821.795,2540.9 1808.658,2550.32 1795.526,2541.221 			"/>
			<g>
				<path fill="#FFFFFF" d="M1873.295,2823.498l0.434,18.075c0,0,43.584,12.354,44.135,12.354c0.549,0,6.775,2.018,6.775,6.046
					c0,0-79.219,0.272-78.941,0c0.271-0.274-0.606-18.866-0.606-18.866S1842.906,2819.737,1873.295,2823.498z"/>
				<path fill="#FFFFFF" d="M1879.949,2851.729c1.031,0,1.912-0.787,2.006-1.832l-0.008-7.074c0.103-1.11-0.715-2.09-1.822-2.191
					c-1.147-0.112-2.094,0.72-2.19,1.827l0.004,7.072c-0.099,1.108,0.721,2.092,1.826,2.188
					C1879.826,2851.727,1879.889,2851.729,1879.949,2851.729z"/>
				<path fill="#FFFFFF" d="M1888.233,2853.498c1.029,0,1.908-0.787,2.006-1.834l-0.01-7.076c0.1-1.106-0.719-2.09-1.826-2.188
					c-1.074-0.125-2.088,0.72-2.188,1.825l0.006,7.075c-0.099,1.106,0.721,2.091,1.826,2.19
					C1888.106,2853.493,1888.174,2853.498,1888.233,2853.498z"/>
				<path fill="#FFFFFF" d="M1896.414,2855.781c1.029,0,1.912-0.787,2.007-1.833l-0.011-7.077c0.103-1.106-0.715-2.086-1.826-2.188
					c-1.062-0.104-2.088,0.715-2.188,1.825l0.006,7.073c-0.1,1.104,0.719,2.091,1.826,2.19
					C1896.293,2855.779,1896.356,2855.781,1896.414,2855.781z"/>
				<path fill="#2F282F" d="M1845.696,2859.972l3.178,3.19c1.603,1.61,3.777,2.517,6.048,2.517h60.985
					c2.549,0,4.961-1.137,6.582-3.103l2.15-2.604H1845.696z"/>
			</g>
			<g>
				<path fill="#FFFFFF" d="M1791.217,2823.498l-0.433,18.075c0,0-43.582,12.354-44.131,12.354s-6.776,2.018-6.776,6.046
					c0,0,79.215,0.272,78.94,0c-0.274-0.274,0.609-18.866,0.609-18.866S1821.608,2819.737,1791.217,2823.498z"/>
				<path fill="#FFFFFF" d="M1784.563,2851.729c-1.029,0-1.906-0.787-2.002-1.832l0.004-7.074c-0.1-1.11,0.719-2.09,1.822-2.191
					c1.152-0.112,2.096,0.72,2.193,1.827l-0.007,7.072c0.101,1.108-0.717,2.092-1.823,2.188
					C1784.69,2851.727,1784.627,2851.729,1784.563,2851.729z"/>
				<path fill="#FFFFFF" d="M1776.283,2853.498c-1.032,0-1.912-0.787-2.006-1.834l0.008-7.076c-0.098-1.106,0.718-2.09,1.826-2.188
					c1.074-0.125,2.09,0.72,2.188,1.825l-0.008,7.075c0.102,1.106-0.716,2.091-1.828,2.19
					C1776.406,2853.493,1776.344,2853.498,1776.283,2853.498z"/>
				<path fill="#FFFFFF" d="M1768.102,2855.781c-1.031,0-1.91-0.787-2.006-1.833l0.006-7.077c-0.096-1.106,0.721-2.086,1.828-2.188
					c1.062-0.104,2.086,0.715,2.188,1.825l-0.01,7.073c0.103,1.104-0.715,2.091-1.826,2.19
					C1768.225,2855.779,1768.16,2855.781,1768.102,2855.781z"/>
				<path fill="#2F282F" d="M1818.819,2859.972l-3.178,3.19c-1.604,1.61-3.779,2.517-6.051,2.517h-60.982
					c-2.549,0-4.963-1.137-6.582-3.103l-2.148-2.604H1818.819z"/>
			</g>
		</g>
		<g>
			<path fill="#FFFFFF" d="M1702.565,2866.117h-74.242c-2.84,0-5.146-2.305-5.146-5.146v-82.977c0-2.36,1.914-4.271,4.271-4.271
				h75.984c2.359,0,4.27,1.91,4.27,4.271v82.977C1707.705,2863.812,1705.406,2866.117,1702.565,2866.117z"/>
			<path fill="#2D61BB" d="M1707.705,2785.52h-84.524V2778c0-2.36,1.912-4.271,4.271-4.271h75.982c2.359,0,4.271,1.908,4.271,4.271
				V2785.52L1707.705,2785.52z"/>
			<path fill="#545054" d="M1684.621,2823.188h-39.668c-5.535,0-10.451-3.323-12.506-8.466l-9.129-27.057
				c-0.287-0.863,0.172-1.799,1.035-2.088c0.859-0.291,1.801,0.17,2.088,1.032l9.094,26.972c1.525,3.799,5.236,6.31,9.418,6.31
				h39.668c4.002,0,7.648-2.356,9.289-6.013l10.531-27.333c0.33-0.853,1.291-1.265,2.129-0.943c0.85,0.326,1.271,1.278,0.943,2.132
				l-10.564,27.414C1694.746,2820.061,1689.92,2823.188,1684.621,2823.188z"/>
			
				<line fill="none" stroke="#2D61BB" stroke-width="2.7333" stroke-linecap="round" stroke-linejoin="round" stroke-miterlimit="10" x1="1671.219" y1="2779.625" x2="1671.219" y2="2804.179"/>
			
				<line fill="none" stroke="#2D61BB" stroke-width="4.0999" stroke-linecap="round" stroke-linejoin="round" stroke-miterlimit="10" x1="1679.33" y1="2784.016" x2="1679.33" y2="2787.967"/>
		</g>
		
			<line fill="none" stroke="#B0D5F7" stroke-width="1.8871" stroke-linecap="round" stroke-linejoin="round" stroke-miterlimit="10" x1="1589.164" y1="2868.763" x2="1973.561" y2="2868.763"/>
	</g>
	<g>
		<g>
			<polygon fill="#E9F1C2" points="1087.524,2820.782 1117.969,2738.326 1130.653,2738.326 1162.367,2820.782 			"/>
			<rect x="1074.668" y="2820.782" fill="#FE9764" width="98.286" height="13.659"/>
			<g>
				<g>
					<polygon id="SVGID_1_" fill="#FE9764" points="1087.524,2820.782 1117.969,2738.326 1130.653,2738.326 1162.367,2820.782 					
						"/>
				</g>
				<g>
					<g>
						<g>
							<defs>
								<polygon id="SVGID_2_" points="1087.524,2820.782 1117.969,2738.326 1130.653,2738.326 1162.367,2820.782 								"/>
							</defs>
							<clipPath id="SVGID_4_">
								<use xlink:href="#SVGID_2_"  overflow="visible"/>
							</clipPath>
							
								<line clip-path="url(#SVGID_4_)" fill="none" stroke="#FFFFFF" stroke-width="3.5772" stroke-miterlimit="10" x1="1087.524" y1="2779.553" x2="1165.703" y2="2759.52"/>
						</g>
					</g>
				</g>
				<g>
					<g>
						<g>
							<defs>
								<polygon id="SVGID_5_" points="1087.524,2820.782 1117.969,2738.326 1130.653,2738.326 1162.367,2820.782 								"/>
							</defs>
							<clipPath id="SVGID_6_">
								<use xlink:href="#SVGID_5_"  overflow="visible"/>
							</clipPath>
							
								<line clip-path="url(#SVGID_6_)" fill="none" stroke="#FFFFFF" stroke-width="3.5772" stroke-miterlimit="10" x1="1083.69" y1="2811.885" x2="1161.871" y2="2791.852"/>
						</g>
					</g>
				</g>
			</g>
		</g>
		<g>
			<polygon fill="#E9F1C2" points="1221.092,2820.782 1251.539,2738.326 1264.225,2738.326 1295.938,2820.782 			"/>
			<rect x="1208.239" y="2820.782" fill="#FE9764" width="98.287" height="13.659"/>
			<g>
				<g>
					<polygon id="SVGID_3_" fill="#FE9764" points="1221.092,2820.782 1251.539,2738.326 1264.225,2738.326 1295.938,2820.782 					
						"/>
				</g>
				<g>
					<g>
						<g>
							<defs>
								<polygon id="SVGID_7_" points="1221.092,2820.782 1251.539,2738.326 1264.225,2738.326 1295.938,2820.782 								"/>
							</defs>
							<clipPath id="SVGID_9_">
								<use xlink:href="#SVGID_7_"  overflow="visible"/>
							</clipPath>
							
								<line clip-path="url(#SVGID_9_)" fill="none" stroke="#FFFFFF" stroke-width="3.5772" stroke-miterlimit="10" x1="1221.092" y1="2779.553" x2="1299.274" y2="2759.52"/>
						</g>
					</g>
				</g>
				<g>
					<g>
						<g>
							<defs>
								<polygon id="SVGID_10_" points="1221.092,2820.782 1251.539,2738.326 1264.225,2738.326 1295.938,2820.782 								"/>
							</defs>
							<clipPath id="SVGID_11_">
								<use xlink:href="#SVGID_10_"  overflow="visible"/>
							</clipPath>
							
								<line clip-path="url(#SVGID_11_)" fill="none" stroke="#FFFFFF" stroke-width="3.5772" stroke-miterlimit="10" x1="1217.26" y1="2811.885" x2="1295.442" y2="2791.852"/>
						</g>
					</g>
				</g>
			</g>
		</g>
		
			<line fill="none" stroke="#B0D5F7" stroke-width="1.8871" stroke-linecap="round" stroke-linejoin="round" stroke-miterlimit="10" x1="1059.61" y1="2836.801" x2="1351.09" y2="2836.801"/>
	</g>
	<g>
		<path fill="#61ABFD" d="M958.274,2469.143l-0.137,0.007c16.393-17.125,8.688-36.043,5.715-41.8
			c-0.006-0.011-0.01-0.021-0.018-0.029c-0.574-1.108-0.986-1.771-0.986-1.771l0.147,0.027c-4.752-9.366-7.483-19.928-7.483-31.146
			c0-19.066,7.729-36.327,20.223-48.822c11.48-15.197,2.793-35.4,2.793-35.4h0.025c-1.793-5.084-2.818-10.526-2.818-16.225
			c0-26.967,21.855-48.822,48.822-48.822s48.822,21.855,48.822,48.822c0,5.695-1.023,11.141-2.816,16.225h0.023
			c0,0-8.688,20.203,2.793,35.4c12.491,12.493,20.221,29.756,20.221,48.82c0,11.212-2.729,21.77-7.476,31.129l0.052-0.008
			c0,0-0.086,0.135-0.215,0.348c-0.39,0.764-0.775,1.525-1.195,2.271c-3.064,6.341-8.978,23.259,4.533,39.111
			c0.414,0.488,0.84,0.971,1.246,1.469c0.125,0.134,0.213,0.271,0.342,0.402l-0.041-0.004c11.68,14.56,18.705,33.011,18.705,53.125
			c0,46.94-38.056,84.991-84.994,84.991s-84.994-38.051-84.994-84.991C939.567,2502.154,946.592,2483.697,958.274,2469.143z"/>
		<path fill="#2D61BB" d="M999.573,2515l20.818,20.601v-72.375l-25.566-25.291c-1.323-1.312-1.338-3.445-0.026-4.772
			c1.313-1.327,3.448-1.334,4.774-0.023l20.818,20.595v-99.83c0-1.866,1.512-3.377,3.375-3.377c1.867,0,3.379,1.511,3.379,3.377
			v60.162l20.242-20.132c1.319-1.312,3.457-1.312,4.774,0.013c1.312,1.325,1.312,3.46-0.014,4.775l-25.006,24.862v72.688
			l22.375-22.604c1.305-1.326,3.44-1.338,4.772-0.027c1.324,1.313,1.338,3.449,0.027,4.777l-27.178,27.449v192.827
			c0,1.862-1.512,3.377-3.377,3.377s-3.375-1.515-3.375-3.377v-153.595l-25.568-25.295c-1.324-1.312-1.338-3.446-0.027-4.771
			C996.112,2513.698,998.248,2513.691,999.573,2515z"/>
		
			<line fill="none" stroke="#B0D5F7" stroke-width="1.8871" stroke-linecap="round" stroke-linejoin="round" stroke-miterlimit="10" x1="972.252" y1="2700.617" x2="1046.881" y2="2700.617"/>
	</g>
</g>
<g>
	<g>
		<g>
			<g>
				<rect x="213.834" y="251.282" fill="#D7E8F7" width="943.625" height="597.336"/>
				<path fill="#8878F9" d="M865.305,522.884H511.748c-9.305,0-16.844-7.526-16.844-16.812V334.315
					c0-9.285,7.539-16.812,16.844-16.812h353.558c9.307,0,16.844,7.527,16.844,16.812v171.756
					C882.149,515.356,874.612,522.884,865.305,522.884z"/>
				<path fill="#FFFFFF" d="M1092.865,505.431H941.061c-6.719,0-12.162-5.434-12.162-12.134v-163.66
					c0-6.703,5.441-12.134,12.162-12.134h151.805c6.719,0,12.16,5.433,12.16,12.134v163.66
					C1105.026,499.998,1099.584,505.431,1092.865,505.431z"/>
				<path fill="#FFFFFF" d="M1093.053,790.088H740.512c-6.609,0-11.965-5.345-11.965-11.945V569.372
					c0-6.596,5.354-11.941,11.965-11.941h352.541c6.613,0,11.973,5.348,11.973,11.941v208.771
					C1105.026,784.741,1099.666,790.088,1093.053,790.088z"/>
				<g>
					<path fill="#FFFFFF" d="M655.155,592.647H498.299c-3.084,0-5.574-2.491-5.574-5.562v-0.532c0-3.069,2.49-5.562,5.574-5.562
						h156.854c3.076,0,5.57,2.493,5.57,5.562v0.532C660.727,590.157,658.231,592.647,655.155,592.647z"/>
					<path fill="#FFFFFF" d="M655.155,629.188H498.299c-3.084,0-5.574-2.494-5.574-5.565v-0.526c0-3.07,2.49-5.565,5.574-5.565
						h156.854c3.076,0,5.57,2.494,5.57,5.565v0.526C660.727,626.694,658.231,629.188,655.155,629.188z"/>
					<path fill="#FFFFFF" d="M606.174,665.728H498.299c-3.084,0-5.574-2.489-5.574-5.562v-0.531c0-3.069,2.49-5.561,5.574-5.561
						h107.875c3.082,0,5.576,2.488,5.576,5.561v0.531C611.75,663.238,609.256,665.728,606.174,665.728z"/>
					<path fill="#FFFFFF" d="M606.174,702.267H498.299c-3.084,0-5.574-2.488-5.574-5.559v-0.535c0-3.071,2.49-5.562,5.574-5.562
						h107.875c3.082,0,5.576,2.489,5.576,5.562v0.535C611.75,699.778,609.256,702.267,606.174,702.267z"/>
					<path fill="#FFFFFF" d="M606.174,775.659H498.299c-3.084,0-5.574-2.491-5.574-5.563v-0.529c0-3.067,2.49-5.562,5.574-5.562
						h107.875c3.082,0,5.576,2.494,5.576,5.562v0.529C611.75,773.168,609.256,775.659,606.174,775.659z"/>
					<path fill="#FFFFFF" d="M655.155,738.808H498.299c-3.084,0-5.574-2.49-5.574-5.562v-0.53c0-3.075,2.49-5.562,5.574-5.562
						h156.854c3.076,0,5.57,2.484,5.57,5.562v0.53C660.727,736.316,658.231,738.808,655.155,738.808z"/>
				</g>
				<g>
					<path fill="#D7E8F7" d="M756.799,464.517H541.418c-3.076,0-5.574-2.489-5.574-5.562v-0.53c0-3.074,2.498-5.563,5.574-5.563
						h215.381c3.073,0,5.567,2.489,5.567,5.563v0.53C762.365,462.027,759.873,464.517,756.799,464.517z"/>
					<path fill="#D7E8F7" d="M653.703,491.89H541.418c-3.076,0-5.576-2.492-5.576-5.566v-0.529c0-3.074,2.5-5.563,5.576-5.563
						h112.284c3.076,0,5.574,2.488,5.574,5.563v0.529C659.278,489.397,656.78,491.89,653.703,491.89z"/>
				</g>
				<g>
					<path fill="#D7E8F7" d="M968.994,491.89h-9.188c-3.084,0-5.576-2.492-5.576-5.566v-0.529c0-3.074,2.492-5.563,5.576-5.563
						h9.188c3.076,0,5.57,2.488,5.57,5.563v0.529C974.565,489.397,972.071,491.89,968.994,491.89z"/>
				</g>
				<g>
					<path fill="#D7E8F7" d="M1074.793,466.771H959.805c-3.084,0-5.576-2.49-5.576-5.561v-0.532c0-3.073,2.492-5.563,5.576-5.563
						h114.988c3.079,0,5.577,2.49,5.577,5.563v0.532C1080.371,464.28,1077.873,466.771,1074.793,466.771z"/>
				</g>
				<path fill="#CADFEF" d="M1241.397,854.75H149.596c-1.693,0-3.063-1.369-3.063-3.062c0-1.684,1.37-3.053,3.063-3.053h1091.801
					c1.695,0,3.068,1.369,3.068,3.053C1244.465,853.381,1243.092,854.75,1241.397,854.75z"/>
				<rect x="196.276" y="251.282" fill="#5B5BC4" width="244.521" height="597.336"/>
				<path fill="#8878F9" d="M1135.987,193.612H217.757c-11.861,0-21.479,9.598-21.479,21.431v36.239h961.185v-36.239
					C1157.459,203.209,1147.848,193.612,1135.987,193.612z"/>
				<g>
					<ellipse fill="#DAEAFF" cx="260.885" cy="222.448" rx="11.666" ry="11.642"/>
					<ellipse fill="#FFD474" cx="295.459" cy="222.448" rx="11.668" ry="11.642"/>
					<ellipse fill="#DAEAFF" cx="330.036" cy="222.448" rx="11.666" ry="11.642"/>
				</g>
				<g>
					<path fill="#00C0CD" d="M1233.008,583.447l-0.096,0.005c11.428-11.909,6.059-25.069,3.979-29.079
						c0-0.004-0.002-0.012-0.008-0.018c-0.398-0.771-0.689-1.232-0.689-1.232l0.105,0.019c-3.312-6.511-5.218-13.858-5.218-21.665
						c0-13.261,5.39-25.271,14.099-33.962c8.002-10.571,1.947-24.626,1.947-24.626h0.014c-1.248-3.534-1.961-7.32-1.961-11.284
						c0-18.754,15.235-33.961,34.029-33.961c18.803,0,34.038,15.207,34.038,33.961c0,3.963-0.715,7.75-1.967,11.284h0.021
						c0,0-6.06,14.056,1.942,24.626c8.712,8.692,14.099,20.701,14.099,33.962c0,7.8-1.9,15.145-5.211,21.65l0.037-0.004
						c0,0-0.062,0.097-0.152,0.246c-0.271,0.529-0.541,1.058-0.834,1.574c-2.141,4.41-6.258,16.18,3.158,27.205
						c0.289,0.345,0.59,0.675,0.875,1.026c0.088,0.092,0.146,0.186,0.235,0.275h-0.032c8.146,10.125,13.047,22.958,13.047,36.952
						c0,32.654-26.529,59.119-59.259,59.119c-32.721,0-59.25-26.465-59.25-59.119
						C1219.967,606.41,1224.862,593.571,1233.008,583.447z"/>
					<path fill="#009DB0" d="M1261.801,615.349l14.51,14.33v-50.348l-17.82-17.591c-0.926-0.912-0.934-2.4-0.02-3.323
						c0.918-0.923,2.404-0.929,3.33-0.018l14.512,14.324v-69.44c0-1.298,1.057-2.351,2.357-2.351c1.3,0,2.348,1.053,2.348,2.351
						v41.846l14.115-13.998c0.918-0.918,2.404-0.918,3.326,0.003c0.92,0.925,0.92,2.408-0.004,3.324l-17.438,17.295v50.56
						l15.6-15.72c0.914-0.928,2.4-0.934,3.332-0.021c0.923,0.912,0.933,2.402,0.017,3.324l-18.945,19.093v134.133
						c0,1.298-1.047,2.347-2.348,2.347c-1.303,0-2.355-1.049-2.355-2.347V636.28l-17.822-17.594c-0.926-0.912-0.934-2.4-0.02-3.325
						C1259.387,614.442,1260.875,614.437,1261.801,615.349z"/>
				</g>
				<path fill="#CADFEF" d="M1328.928,748.058h-95.422c-1.771,0-3.209-1.434-3.209-3.205c0-1.766,1.438-3.199,3.209-3.199h95.422
					c1.776,0,3.211,1.434,3.211,3.199C1332.141,746.625,1330.705,748.058,1328.928,748.058z"/>
				<g>
					<path fill="#FFFFFF" d="M841.723,50.289H709.158c0,0,9.711-39.726,43.996-39.726c25.406,0,38.586,16.026,43.719,24.336
						C806.891,30.989,828.465,26.243,841.723,50.289"/>
					<g>
						<g>
							<path fill="#FFFFFF" d="M1003.268,88.278c6.521,0,12.631,1.763,17.934,4.821c10.134-17.629,28.824-29.497,50.263-29.497
								c20.028,0,37.684,10.327,48.182,26.048c5.545-18.938,22.699-32.75,43.025-32.75c23.071,0,42.057,17.787,44.614,40.679
								c1.854-0.299,3.742-0.498,5.681-0.498c14.067,0,26.27,8.131,32.393,20.039H967.68
								C971.473,100.595,985.949,88.278,1003.268,88.278z"/>
						</g>
					</g>
				</g>
				<g>
					<g>
						<path fill="#A7C8F9" d="M1098.592,948.344c-1.275,0-2.508-0.692-3.135-1.902L910.401,589.45
							c-0.897-1.729-0.225-3.85,1.508-4.744c1.734-0.896,3.855-0.22,4.75,1.51l185.064,356.999c0.895,1.725,0.217,3.846-1.516,4.737
							C1099.692,948.219,1099.135,948.344,1098.592,948.344z"/>
						<path fill="#A7C8F9" d="M1167.328,948.344c-1.272,0-2.512-0.692-3.137-1.902L979.135,589.45
							c-0.9-1.729-0.226-3.85,1.506-4.744c1.74-0.896,3.861-0.22,4.754,1.51l185.061,356.999c0.896,1.725,0.218,3.846-1.514,4.737
							C1168.428,948.219,1167.869,948.344,1167.328,948.344z"/>
						<path fill="#A7C8F9" d="M1145.549,906.341h-68.736c-1.945,0-3.525-1.578-3.525-3.522c0-1.938,1.58-3.513,3.525-3.513h68.736
							c1.944,0,3.524,1.57,3.524,3.513C1149.076,904.762,1147.494,906.341,1145.549,906.341z"/>
						<path fill="#A7C8F9" d="M1103.875,828.762h-66.978c-1.945,0-3.521-1.576-3.521-3.519c0-1.944,1.573-3.521,3.521-3.521h66.978
							c1.942,0,3.524,1.575,3.524,3.521C1107.401,827.185,1105.819,828.762,1103.875,828.762z"/>
						<path fill="#A7C8F9" d="M1063.967,751.182H996.99c-1.946,0-3.52-1.577-3.52-3.521c0-1.939,1.569-3.514,3.52-3.514h66.978
							c1.944,0,3.526,1.571,3.526,3.514C1067.494,749.604,1065.912,751.182,1063.967,751.182z"/>
						<path fill="#A7C8F9" d="M1024.053,673.604h-66.972c-1.946,0-3.522-1.576-3.522-3.519c0-1.94,1.576-3.52,3.522-3.52h66.972
							c1.944,0,3.526,1.576,3.526,3.52C1027.579,672.028,1025.998,673.604,1024.053,673.604z"/>
					</g>
					<g>
						<path fill="#68A0F2" d="M790.153,948.344c-0.549,0-1.102-0.125-1.615-0.394c-1.729-0.893-2.403-3.015-1.514-4.737
							l185.06-356.999c0.897-1.729,3.024-2.401,4.752-1.51c1.729,0.896,2.405,3.015,1.514,4.744L793.287,946.44
							C792.66,947.652,791.428,948.344,790.153,948.344z"/>
						<path fill="#68A0F2" d="M721.416,948.344c-0.545,0-1.1-0.125-1.614-0.394c-1.729-0.893-2.404-3.015-1.515-4.737
							l185.062-356.999c0.895-1.729,3.02-2.401,4.748-1.51c1.731,0.896,2.408,3.015,1.516,4.744L724.551,946.44
							C723.924,947.652,722.69,948.344,721.416,948.344z"/>
						<path fill="#68A0F2" d="M811.934,906.341h-68.738c-1.947,0-3.522-1.578-3.522-3.522c0-1.938,1.578-3.513,3.522-3.513h68.738
							c1.945,0,3.523,1.57,3.523,3.513C815.459,904.762,813.879,906.341,811.934,906.341z"/>
						<path fill="#68A0F2" d="M851.84,828.762h-66.971c-1.944,0-3.526-1.576-3.526-3.519c0-1.944,1.582-3.521,3.526-3.521h66.972
							c1.946,0,3.524,1.575,3.524,3.521C855.365,827.185,853.787,828.762,851.84,828.762z"/>
						<path fill="#68A0F2" d="M891.754,751.182H824.78c-1.947,0-3.522-1.577-3.522-3.521c0-1.939,1.575-3.514,3.522-3.514h66.976
							c1.946,0,3.524,1.571,3.524,3.514C895.28,749.604,893.701,751.182,891.754,751.182z"/>
						<path fill="#68A0F2" d="M931.662,673.604h-66.969c-1.947,0-3.524-1.576-3.524-3.519c0-1.94,1.577-3.52,3.524-3.52h66.969
							c1.945,0,3.525,1.576,3.525,3.52C935.188,672.028,933.608,673.604,931.662,673.604z"/>
						<path fill="#214A81" d="M989.582,587.832h-90.418c-2.771,0-5.021-2.244-5.021-5.014v-7.563c0-2.766,2.248-5.017,5.021-5.017
							h90.418c2.771,0,5.023,2.251,5.023,5.017v7.562C994.606,585.587,992.354,587.832,989.582,587.832z"/>
					</g>
				</g>
				<ellipse fill="#D7E8F7" cx="566.022" cy="386.173" rx="37.078" ry="36.998"/>
				<path fill="#D7E8F7" d="M1058.112,389.229c0,23.573-19.16,42.69-42.785,42.69c-23.629,0-42.784-19.117-42.784-42.69
					c0-23.577,19.155-42.691,42.784-42.691C1038.951,346.538,1058.112,365.652,1058.112,389.229z"/>
				<ellipse fill="#8878F9" cx="1016.963" cy="374.334" rx="42.782" ry="42.693"/>
				<g>
					<path fill="#8878F9" d="M412.094,609.95L173.36,716.894c-3.836,1.715-8.338,0.01-10.057-3.818l-44.898-99.791
						c-1.721-3.824-0.008-8.314,3.822-10.029l238.74-106.947c3.83-1.719,8.33-0.008,10.051,3.814l44.9,99.792
						C417.641,603.741,415.928,608.234,412.094,609.95z"/>
					<path fill="#DAEAFF" d="M360.764,603.808l-71.033,31.821c-1.725,0.771-3.754,0.005-4.526-1.72l-25.482-56.635
						c-0.772-1.725-0.004-3.75,1.725-4.521l71.033-31.821c1.722-0.772,3.75-0.006,4.525,1.723l25.479,56.64
						C363.258,601.012,362.491,603.035,360.764,603.808z"/>
					<g>
						<path fill="#DAEAFF" d="M239.711,618.894c7.727,17.405-0.142,37.76-17.584,45.471c-17.439,7.719-37.844-0.136-45.574-17.536
							c-7.73-17.404,0.146-37.764,17.584-45.478C211.577,593.637,231.979,601.495,239.711,618.894z"/>
					</g>
					<path fill="#FFBDA1" d="M360.807,639.194c0,5.683-4.619,10.29-10.313,10.29c-5.691,0-10.312-4.607-10.312-10.29
						c0-5.685,4.619-10.289,10.312-10.289C356.188,628.905,360.807,633.51,360.807,639.194z"/>
					<ellipse fill="#FFBDA1" cx="199.053" cy="785.784" rx="10.312" ry="10.29"/>
					<g>
						<path fill="#FFBDA1" d="M339.918,940.316c0.207-1.257,0.207-37.088,0.207-37.088h16.672v37.109L339.918,940.316z"/>
						<path fill="#1E1A1E" d="M386.44,947.308l-46.521,0.205v-14.251l32.129-0.136C379.948,933.075,386.391,939.426,386.44,947.308
							L386.44,947.308z"/>
					</g>
					<g>
						<path fill="#FFBDA1" d="M173.594,900.968c1.16-0.531,30.902-20.598,30.902-20.598l9.338,13.781l-30.81,20.781L173.594,900.968
							z"/>
						<path fill="#1E1A1E" d="M193.846,943.346L167.617,905l11.836-7.979l18.104,26.479
							C202.026,930.008,200.362,938.891,193.846,943.346L193.846,943.346z"/>
					</g>
					<g>
						<path fill="#FFBDA1" d="M311.577,630.421l-5.111-2.19l-2.906,6.725l4.943,1.187l3.346-2.045
							C313.282,633.217,313.125,631.082,311.577,630.421z"/>
						<g>
							<g>
								<path id="SVGID_8_" fill="#FFBDA1" d="M308.559,641.048c-2.854,11.887-14.82,19.208-26.731,16.358
									c-11.908-2.85-19.246-14.786-16.392-26.674c2.853-11.88,14.822-19.206,26.73-16.355
									C304.075,617.225,311.417,629.168,308.559,641.048z"/>
							</g>
							<g>
								<g>
									<g>
										<defs>
											<path id="SVGID_12_" d="M308.559,641.048c-2.854,11.887-14.82,19.208-26.731,16.358
												c-11.908-2.85-19.246-14.786-16.392-26.674c2.853-11.88,14.822-19.206,26.73-16.355
												C304.075,617.225,311.417,629.168,308.559,641.048z"/>
										</defs>
										<clipPath id="SVGID_13_">
											<use xlink:href="#SVGID_12_"  overflow="visible"/>
										</clipPath>
										<polygon clip-path="url(#SVGID_13_)" fill="#072042" points="294.483,607.909 268.471,660.528 258.409,623.099 										
											"/>
									</g>
								</g>
							</g>
						</g>
						<path fill="#FFBDA1" d="M283.303,636.988c-0.803,3.33-4.15,5.381-7.488,4.585c-3.33-0.799-5.389-4.143-4.59-7.471
							c0.801-3.328,4.15-5.379,7.488-4.58C282.047,630.316,284.102,633.666,283.303,636.988z"/>
						<path fill="#072042" d="M267.127,650.663c-4.935,9.489-16.646,13.189-26.156,8.263c-9.514-4.921-13.223-16.61-8.283-26.101
							c4.935-9.491,16.646-13.189,26.156-8.265C268.354,629.482,272.065,641.175,267.127,650.663z"/>
					</g>
					<path fill="#FFBDA1" d="M295.245,655.026c0,1.279,0,30.708,0,30.708l-19.232-12.797l2.08-18.618L295.245,655.026z"/>
					<path fill="#0E2C58" d="M280.821,781.688h0.646c17.525,0,31.736-14.173,31.736-31.667v-1.595h-64.117v1.595
						C249.084,767.515,263.292,781.688,280.821,781.688z"/>
					<path fill="#0E2C58" d="M277.782,769.56l23.75,35.86l11.879,17.927l2.924,4.416c0.207,0.313,0.5,0.771,0.77,1.244
						c0.265,0.456,0.521,0.928,0.754,1.403c0.957,1.899,1.705,3.92,2.187,6.021c0.115,0.523,0.231,1.05,0.32,1.581l0.071,0.396
						l0.078,0.611l0.188,1.333l0.729,5.336l1.467,10.67l2.929,21.341l5.85,42.683l32.287-3.581l-3.682-42.918l-1.841-21.464
						l-0.918-10.727l-0.461-5.37l-0.112-1.341l-0.162-1.659c-0.136-1.253-0.314-2.489-0.529-3.734
						c-0.842-4.96-2.289-9.824-4.273-14.474c-0.495-1.161-1.03-2.312-1.598-3.441c-0.562-1.122-1.156-2.227-1.863-3.449l-2.789-4.72
						l-11.008-18.577l-22.012-37.164L277.782,769.56z"/>
					<path fill="#0E2C58" d="M249.053,749.536l-1.736,43.571l-0.811,21.794l-0.406,10.899l-0.203,5.448l-0.047,1.206
						c-0.008,0.152-0.012,0.31-0.004,0.465c-0.037,0.375-0.055,0.775-0.121,1.158c-0.207,1.557-0.711,3.096-1.481,4.513
						c-0.386,0.717-0.826,1.405-1.345,2.038c-0.528,0.658-1.026,1.198-1.754,1.846l-16.896,13.905
						c-11.263,9.28-22.482,18.61-33.664,27.992l16.99,22.364c12.067-8.207,24.102-16.454,36.088-24.767l17.979-12.468
						c9.062-6.439,16.019-16.392,18.769-27.482c0.364-1.38,0.633-2.779,0.885-4.197l0.305-2.254l0.164-1.509l0.568-5.438
						l1.135-10.881l2.262-21.771l4.422-43.546L249.053,749.536z"/>
					<path fill="#FFD673" d="M382.7,680.993l-17.953-39.662l-21.037,9.477l10.453,23.081l-38.447-0.7v-0.25h-40.389
						c-7.466,0-14.162,3.146-18.943,8.139c-1.35,1.019-2.627,2.158-3.762,3.499l-36.98,33.261c-0.791,0.936-1.43,1.994-1.885,3.132
						L191.954,775l21.412,8.601l21.104-52.31l14.615-14.262v32.676h58.986c4.217,0,7.643-3.417,7.643-7.628v-45.854l56.254,1.021
						c0.074,0,0.146,0,0.215,0c3.879,0,7.496-1.94,9.633-5.178C383.995,688.767,384.323,684.587,382.7,680.993z"/>
				</g>
				<g>
					<g>
						<g>
							<g>
								<g>
									<path fill="#FFBDA1" d="M1004.198,410.532c0.203,5.489-4.088,10.107-9.592,10.308c-5.508,0.204-10.127-4.084-10.33-9.575
										c-0.205-5.489,4.092-10.104,9.594-10.305C999.373,400.757,1003.996,405.047,1004.198,410.532z"/>
									<g>
										<path fill="#FFBDA1" d="M746.44,619.092c0,5.497-4.469,9.947-9.971,9.947c-5.51,0-9.974-4.45-9.974-9.947
											c0-5.492,4.464-9.943,9.974-9.943C741.973,609.147,746.44,613.599,746.44,619.092z"/>
										<polygon fill="#FFBDA1" points="744.332,619.209 734.744,612.325 748.547,593.184 758.135,600.073 										"/>
									</g>
									<polygon fill="#FFBDA1" points="849.285,454.764 851.686,491.053 870.346,486.635 867.946,453.291 									"/>
									<path fill="#FFD474" d="M898.553,547.888v-66.229c0-7.043-6.711-12.153-13.521-10.304l-18.477,5.03
										c-5.73,1.556-11.305,3.651-16.646,6.255l-19.192,9.353c-2.775,1.353-4.529,4.164-4.529,7.245v61.052L898.553,547.888z"/>
									<path fill="#FFD474" d="M886.348,492.404l-5.123-19.98l60.311-15.398l39.222-46.123l15.77,13.35l-41.354,48.628
										c-1.386,1.63-3.236,2.786-5.32,3.317L886.348,492.404z"/>
									<path fill="#FFD474" d="M751.731,615.364l-16.492-12.439l45.779-60.42c0.258-0.336,0.533-0.655,0.828-0.959l47.178-48.438
										l14.922,14.174l-46.815,48.173L751.731,615.364z"/>
									<g>
										<polygon fill="#FFBDA1" points="844.328,729.052 857.203,703.454 872.348,703.454 859.059,729.98 										"/>
										<path fill="#1E1A1E" d="M892.948,744.052l-49.412,0.217v-15.133l34.119-0.15
											C886.051,728.934,892.895,735.678,892.948,744.052L892.948,744.052z"/>
									</g>
									<g>
										<polygon fill="#FFBDA1" points="771.864,737.013 783.178,713.039 796.61,717.665 782.617,747.096 										"/>
									</g>
									<g>
										<path fill="#03345F" d="M826.188,558.494v3.354c0,19.805,20.49,21.738,42.717,18.158l0,0
											c17.174-2.77,29.648-11.095,29.648-26.4v-5.719L826.188,558.494z"/>
										<path fill="#03345F" d="M867.946,555.744l-24.428,90.069l-0.422,1.551c-0.246,0.894-0.611,1.771-1.037,2.55
											l-43.572,75.555l-25.75-5.653l43.484-83.647l-1.459,4.101l11.426-81.771L867.946,555.744z"/>
										<path fill="#03345F" d="M898.553,547.888l13.688,80.671l0.224,1.494c0.401,2.726-0.017,5.434-1.029,7.792l-35.775,75.193
											l-28.254-1.388l36.791-85.522l-0.811,9.283l-25.447-76.335L898.553,547.888z"/>
									</g>
								</g>
								<path fill="#FFD474" d="M841.924,486.534c0,0,6.17-20.366,33.049-12.989L841.924,486.534z"/>
							</g>
						</g>
						<g>
							
								<ellipse transform="matrix(0.0832 0.9965 -0.9965 0.0832 1209.1537 -421.0778)" fill="#FFBDA1" cx="833.435" cy="446.642" rx="5.878" ry="5.893"/>
							<path fill="#FFBDA1" d="M886.471,442.222c0.27,3.235-2.142,6.076-5.379,6.346c-3.242,0.272-6.099-2.134-6.367-5.365
								c-0.271-3.235,2.139-6.079,5.381-6.35C883.348,436.584,886.198,438.984,886.471,442.222z"/>
							<path fill="#072042" d="M880.694,437.614c1.115,13.307-8.787,24.989-22.119,26.103c-13.332,1.112-25.041-8.771-26.158-22.071
								c-1.114-13.303,8.787-24.989,22.119-26.1C867.867,414.431,879.578,424.312,880.694,437.614z"/>
						</g>
					</g>
					<path fill="#1E1A1E" d="M777.746,778.226L777.746,778.226c-5.483,0-9.936-4.438-9.936-9.907v-28.627
						c0-5.474,4.449-9.913,9.936-9.913l0,0c5.488,0,9.935,4.439,9.935,9.913v28.627C787.68,773.788,783.235,778.226,777.746,778.226
						z"/>
				</g>
				<path fill="#8878F9" d="M416.589,413.095c0,8.74-5.373,15.824-12,15.824H229.832c-6.627,0-12-7.084-12-15.824V291.778
					c0-8.74,5.373-15.824,12-15.824h174.756c6.627,0,12,7.084,12,15.824V413.095z"/>
			</g>
		</g>
	</g>
	<path fill="#00C0CD" d="M1022.405,1106.44c0,37.298-30.301,67.529-67.676,67.529c-37.377,0-67.678-30.23-67.678-67.529
		c0-15.979,5.594-30.646,14.895-42.209l-0.104,0.004c13.049-13.606,6.916-28.637,4.549-33.211c-0.004-0.008-0.008-0.016-0.014-0.022
		c-0.455-0.882-0.783-1.405-0.783-1.405l0.119,0.021c-3.785-7.439-5.961-15.832-5.961-24.746c0-15.148,6.151-28.862,16.102-38.791
		c9.144-12.073,2.228-28.127,2.228-28.127h0.02c-1.43-4.038-2.248-8.363-2.248-12.892c0-21.425,17.404-38.79,38.879-38.79
		c21.471,0,38.875,17.365,38.875,38.79c0,4.526-0.815,8.854-2.244,12.892h0.021c0,0-6.92,16.054,2.223,28.127
		c9.947,9.929,16.104,23.643,16.104,38.791c0,8.904-2.175,17.293-5.951,24.73l0.039-0.006c0,0-0.068,0.104-0.17,0.274
		c-0.312,0.605-0.623,1.212-0.953,1.806c-2.441,5.036-7.146,18.479,3.606,31.074c0.332,0.39,0.673,0.771,0.994,1.166
		c0.101,0.104,0.17,0.214,0.271,0.319l-0.033-0.003C1016.811,1075.8,1022.405,1090.461,1022.405,1106.44"/>
	<path fill="#009DB0" d="M934.832,1100.666l16.578,16.364v-57.502l-20.358-20.096c-1.056-1.041-1.066-2.736-0.021-3.792
		c1.047-1.056,2.75-1.061,3.804-0.02l16.577,16.36v-79.315c0-1.483,1.203-2.685,2.688-2.685c1.488,0,2.688,1.2,2.688,2.685v47.8
		l16.121-15.995c1.052-1.043,2.75-1.043,3.8,0.01c1.047,1.054,1.047,2.749-0.011,3.796l-19.91,19.754v57.752l17.814-17.957
		c1.041-1.059,2.742-1.062,3.803-0.024c1.058,1.047,1.066,2.74,0.021,3.798l-21.642,21.81v153.207c0,1.479-1.2,2.683-2.688,2.683
		c-1.484,0-2.688-1.202-2.688-2.683V1124.58l-20.356-20.099c-1.056-1.043-1.064-2.739-0.021-3.793
		C932.076,1099.632,933.778,1099.625,934.832,1100.666z"/>
	<line fill="none" x1="919.928" y1="1375.925" x2="994.99" y2="1375.925"/>
	<path fill="#00C0CD" d="M90.821,313.971c0,21.666-17.602,39.226-39.311,39.226c-21.711,0-39.314-17.56-39.314-39.226
		c0-9.283,3.25-17.802,8.656-24.52l-0.062,0.002c7.578-7.901,4.018-16.635,2.643-19.29c-0.002-0.005-0.004-0.011-0.01-0.015
		c-0.264-0.512-0.455-0.817-0.455-0.817l0.068,0.015c-2.199-4.324-3.463-9.198-3.463-14.377c0-8.8,3.573-16.766,9.354-22.531
		c5.311-7.014,1.293-16.338,1.293-16.338h0.012c-0.83-2.348-1.305-4.859-1.305-7.488c0-12.445,10.109-22.531,22.584-22.531
		c12.471,0,22.582,10.087,22.582,22.531c0,2.628-0.477,5.142-1.305,7.488h0.014c0,0-4.02,9.324,1.291,16.338
		c5.777,5.768,9.352,13.73,9.352,22.531c0,5.175-1.26,10.047-3.454,14.366l0.022-0.003c0,0-0.039,0.062-0.102,0.16
		c-0.183,0.354-0.359,0.703-0.554,1.048c-1.418,2.926-4.151,10.734,2.097,18.051c0.192,0.228,0.389,0.448,0.578,0.678
		c0.061,0.062,0.1,0.125,0.157,0.187l-0.02-0.001C87.573,296.173,90.821,304.688,90.821,313.971"/>
	<path fill="#009DB0" d="M39.952,310.616l9.629,9.507V286.72l-11.826-11.674c-0.615-0.604-0.619-1.591-0.014-2.202
		c0.606-0.613,1.598-0.615,2.209-0.012l9.629,9.505v-46.072c0-0.862,0.696-1.559,1.561-1.559c0.865,0,1.562,0.695,1.562,1.559
		v27.768l9.362-9.293c0.611-0.604,1.603-0.604,2.207,0.006c0.609,0.611,0.609,1.598-0.004,2.206l-11.565,11.475v33.547
		l10.348-10.432c0.604-0.613,1.594-0.618,2.209-0.014c0.613,0.607,0.619,1.593,0.014,2.204L52.7,306.4v88.993
		c0,0.861-0.695,1.561-1.562,1.561c-0.863,0-1.562-0.698-1.562-1.561v-70.885l-11.828-11.675c-0.611-0.605-0.617-1.592-0.013-2.202
		C38.348,310.016,39.338,310.012,39.952,310.616z"/>
	<line fill="none" x1="27.315" y1="396.284" x2="61.834" y2="396.284"/>
</g>
<g>
	<g>
		<g>
			<path fill="#FFD673" d="M504.168,882.266l-1.104-3.166l-1.104,3.166c-0.931,2.668-3.146,4.921-6.142,6.252l0,0l0,0
				c2.996,1.33,5.211,3.583,6.142,6.253l1.104,3.165l1.104-3.165c0.932-2.67,3.146-4.923,6.141-6.253l0,0l0,0
				C507.313,887.187,505.1,884.934,504.168,882.266z"/>
			<path fill="#FFD673" d="M404.301,1063.241l-1.105-3.168l-1.104,3.168c-0.932,2.668-3.146,4.92-6.141,6.252l0,0l0,0
				c2.993,1.327,5.209,3.584,6.141,6.252l1.104,3.166l1.105-3.166c0.932-2.668,3.146-4.925,6.141-6.252l0,0l0,0
				C407.446,1068.161,405.231,1065.909,404.301,1063.241z"/>
			<path fill="#FFD673" d="M703.707,1044.173l-0.729-2.087l-0.73,2.087c-0.61,1.761-2.073,3.247-4.051,4.126l0,0l0,0
				c1.978,0.878,3.439,2.365,4.051,4.126l0.73,2.089l0.729-2.089c0.613-1.761,2.072-3.248,4.054-4.126l0,0l0,0
				C705.78,1047.42,704.321,1045.933,703.707,1044.173z"/>
			<path fill="#FFD673" d="M356.03,939.116l-0.729-2.089l-0.73,2.089c-0.612,1.764-2.073,3.246-4.051,4.125l0,0l0,0
				c1.978,0.88,3.438,2.363,4.051,4.125l0.73,2.091l0.729-2.091c0.615-1.762,2.074-3.245,4.052-4.125l0,0l0,0
				C358.104,942.364,356.645,940.879,356.03,939.116z"/>
		</g>
		<g>
			<path fill="#C5C9E6" d="M549.703,1088.88h80.17c16.089,0,29.599-12.107,31.353-28.103l11.562-120.336h-80.125l-1.637,69.772
				L549.703,1088.88z"/>
			<g>
				<path fill="#3D415B" d="M549.703,1088.332c0,0,3.861-0.061,10.619-0.161c3.379-0.044,7.482-0.099,12.189-0.156
					c4.705-0.044,10.016-0.093,15.809-0.146c5.791-0.049,12.066-0.101,18.705-0.151c6.637-0.025,13.635-0.051,20.875-0.078
					l1.361-0.004l0.623-0.005l0.684-0.034c0.896-0.066,1.861-0.045,2.709-0.185c0.854-0.145,1.711-0.222,2.574-0.405
					c0.857-0.22,1.732-0.398,2.592-0.646c3.426-1.018,6.707-2.673,9.607-4.879c5.826-4.382,10.067-11.018,11.471-18.303
					c0.137-0.911,0.301-1.835,0.422-2.735l0.279-2.881c0.186-1.92,0.371-3.838,0.557-5.752c0.371-3.829,0.74-7.643,1.107-11.426
					c0.733-7.567,1.463-15.016,2.164-22.22c1.444-14.409,2.797-27.857,3.953-39.387c2.403-23.046,4.01-38.406,4.01-38.406
					c0.043-0.429,0.426-0.735,0.852-0.69c0.422,0.044,0.729,0.418,0.691,0.839c0,0-1.354,15.389-3.379,38.469
					c-1.062,11.537-2.293,24.996-3.615,39.418c-0.682,7.207-1.389,14.656-2.105,22.228c-0.358,3.784-0.723,7.598-1.088,11.428
					c-0.182,1.914-0.362,3.832-0.547,5.753l-0.274,2.882c-0.13,1.017-0.304,1.991-0.453,2.989
					c-1.517,7.911-6.097,15.17-12.457,19.899c-3.168,2.377-6.744,4.147-10.469,5.229c-0.935,0.267-1.884,0.455-2.816,0.685
					c-0.945,0.196-1.936,0.289-2.896,0.433c-0.971,0.14-1.848,0.106-2.771,0.17l-0.684,0.029l-0.74,0.002l-1.359-0.004
					c-7.24-0.027-14.237-0.054-20.875-0.078c-6.639-0.054-12.914-0.104-18.705-0.152c-5.793-0.054-11.104-0.103-15.811-0.146
					c-4.705-0.062-8.812-0.112-12.188-0.156c-6.758-0.104-10.619-0.162-10.619-0.162c-0.303-0.005-0.543-0.253-0.536-0.556
					C549.17,1088.575,549.41,1088.338,549.703,1088.332z"/>
			</g>
			
				<line fill="none" stroke="#8878F9" stroke-width="2" stroke-miterlimit="10" x1="595.547" y1="1091.152" x2="595.547" y2="1176.138"/>
		</g>
		<g>
			<rect x="352.256" y="1011.532" fill="#8878F9" width="258.426" height="4.021"/>
			<polygon fill="#E3BC9A" points="580.205,1192.181 582.949,1202.011 569.596,1206.058 565.418,1193.921 			"/>
			<polygon fill="#E3BC9A" points="499.586,1185.043 499.586,1192.938 511.408,1192.938 512.727,1185.043 			"/>
			<g>
				<g>
					<path fill="#D8AC89" d="M590.393,956.666l-17.857,44.077l-0.396,0.979c-1.062,2.622-3.605,4.207-6.271,4.193l-50.85-0.362
						c-2.057-0.018-3.711-1.692-3.695-3.75c0.015-1.865,1.396-3.397,3.188-3.657l50.312-7.349l-6.668,5.176l12.021-46.014
						c1.485-5.703,7.319-9.12,13.022-7.632s9.119,7.321,7.631,13.025C590.715,955.787,590.555,956.264,590.393,956.666z"/>
					<path fill="#D8AC89" d="M520.543,997.268l-17.365-0.358c-4.291,0-7.771,3.875-7.771,8.655l0,0h25.357L520.543,997.268z"/>
				</g>
				<g>
					<path fill="#7C6EF2" d="M562.28,962.032l27.803,6.789l4.562-24.778c1.225-6.657-3.41-12.989-10.23-13.977l0,0
						c-5.735-0.827-11.272,2.427-13.243,7.781L562.28,962.032z"/>
				</g>
			</g>
			<path fill="#03345F" d="M591.024,1010.217l-85.66,43.472c-7.951,4.034-12.752,12.397-12.229,21.298l6.453,110.061h13.143
				l17.729-117.76l66.691-46.826L591.024,1010.217z"/>
			<path fill="#282C3C" d="M575.908,859.897c0,0,23.808-8.092,36.312,14.45c0.725,1.31,1.52,2.57,2.488,3.713
				c2.538,3,7.834,8.525,13.676,10.316c23.166,7.105,37.824,50.913-8.287,54.812c-57.707,4.88-74.094-6.501-65.838-29.505
				c5.889-16.407,0.631-28.053,0.631-28.053L575.908,859.897z"/>
			<path fill="#583BF5" d="M594.912,918.689l-12.315,5.481c-7.336,3.263-12.041,10.562-11.945,18.588
				c0.189,16.173,3.857,56.326,17.521,71.692h41.646c6.447-28.449,2.732-72.174,2.732-72.174
				c0.414-10.72-7.469-19.964-18.119-21.244L594.912,918.689z"/>
			<g>
				<g>
					<g>
						<path fill="#DDB28D" d="M596.059,931.95L596.059,931.95c-4.34,0.504-8.277-2.575-8.83-6.907l-3.391-26.472l15.844-1.842
							l3.365,26.285C603.61,927.423,600.469,931.437,596.059,931.95z"/>
						<path fill="#E3BC9A" d="M582.977,918.325l-0.633,0.082c-10.56,1.377-20.23-6.064-21.607-16.625l-3.008-23.062l38.867-5.067
							l3.006,23.064C600.979,907.275,593.535,916.95,582.977,918.325z"/>
					</g>
					<path fill="#282C3C" d="M600.862,887.858l-3.313,6.875c0,0-4.414,3.825-5.664-5.789c-1.062-8.144-6.976-6.729-6.976-6.729
						s-20.252,15.32-32.147,4.809c-9.39-8.298,5.785-23.481,23.147-27.126l22.773,9.951L600.862,887.858z"/>
					<circle fill="#E3BC9A" cx="601.635" cy="894.24" r="6.428"/>
					<circle fill="#FFFFFF" cx="601.635" cy="897.107" r="1.157"/>
				</g>
				<path fill="#FFFFFF" d="M567.637,907.159l10.906-2.318c0,0,0.526,4.736-5.445,5.594
					C568.385,911.108,567.637,907.159,567.637,907.159z"/>
			</g>
			<path fill="#03345F" d="M629.817,1014.452h-41.645l-66.623,40.255c-7.855,4.745-10.972,14.586-7.271,22.984l51.144,116.229
				l14.784-1.739l-27.485-112.156c23.067-0.976,65.903-4.46,77.102-16.937C648.76,1041.977,629.817,1014.452,629.817,1014.452z"/>
			<g>
				<path fill="#93B7FA" d="M487.787,941.521l23.765,63.859h-77.229l-21.981-60.154c-0.658-1.799,0.676-3.705,2.592-3.705H487.787z"
					/>
				<path fill="#A9C9FA" d="M487.787,941.521h3.697c1.986,0,3.76,1.237,4.449,3.102l22.404,60.761h-6.787L487.787,941.521z"/>
				<path fill="#82A7E7" d="M440.112,1011.532h71.439v-6.149h-77.019v0.578C434.535,1009.037,437.033,1011.532,440.112,1011.532z"/>
				<path fill="#8EB6EC" d="M511.551,1011.532h47.655c1.699,0,3.078-1.378,3.078-3.073l0,0c0-1.7-1.379-3.076-3.078-3.076h-47.655
					V1011.532L511.551,1011.532z"/>
				
					<ellipse transform="matrix(0.3142 0.9494 -0.9494 0.3142 1242.7969 230.6962)" fill="#ECF2F5" cx="461.72" cy="975.561" rx="8.416" ry="6.933"/>
			</g>
			<g>
				<g>
					<path fill="#E3BC9A" d="M622.979,955.463l-17.889,44.923l-0.396,0.991c-1.061,2.663-3.639,4.278-6.34,4.269l-50.857-0.333
						c-2.073-0.014-3.745-1.706-3.729-3.782c0.012-1.881,1.4-3.426,3.207-3.69l50.307-7.446l-6.731,5.261l11.985-46.846
						c1.478-5.764,7.345-9.24,13.107-7.766c5.764,1.476,9.24,7.344,7.766,13.104C623.297,954.579,623.139,955.056,622.979,955.463z"
						/>
					<path fill="#E3BC9A" d="M553.016,996.903l-17.363-0.364c-4.293,0-7.771,3.947-7.771,8.816l0,0h25.356L553.016,996.903z"/>
				</g>
				<g>
					<path fill="#7C6EF2" d="M594.754,961.012l27.803,6.917l4.562-25.24c1.229-6.781-3.405-13.229-10.229-14.232l0,0
						c-5.736-0.847-11.275,2.471-13.244,7.926L594.754,961.012z"/>
				</g>
			</g>
			<path fill="#29323D" d="M560.928,1196.627l-6.488,6.403l-14.578,3.547c-1.502,0.364-2.717,1.466-3.229,2.927l-0.74,2.108
				c-0.367,1.048,0.426,2.143,1.535,2.116l46.92-1.14c1.526-0.033,2.713-1.344,2.588-2.866l-3.697-13.291l-7.09,1.695
				c-2.373,0.787-4.967,0.52-7.125-0.738l-2.523-1.469C564.696,1194.87,562.412,1195.159,560.928,1196.627z"/>
			<path fill="#29323D" d="M493.58,1187.407l-6.485,6.404l-14.578,3.546c-1.5,0.366-2.717,1.469-3.229,2.928l-0.737,2.108
				c-0.369,1.048,0.424,2.143,1.532,2.118l42.472-0.896c1.526-0.032,2.713-1.348,2.588-2.866l-1.104-13.58l-5.233,1.74
				c-2.371,0.786-4.967,0.519-7.125-0.739l-2.521-1.47C497.35,1185.65,495.067,1185.94,493.58,1187.407z"/>
		</g>
		<g>
			<path fill="#93B7FA" d="M395.53,992.18c0,0,19.65,0.069,15.566-20.154C411.096,972.025,390.481,974.065,395.53,992.18z"/>
			<path fill="#93B7FA" d="M393.067,991.096c0,0-19.893,0.068-15.758-20.405C377.309,970.69,398.178,972.755,393.067,991.096z"/>
			<path fill="#82A7E7" d="M393.979,991.165c0,0-14.485-14.6,2.601-27.468C396.579,963.7,410.305,980.677,393.979,991.165z"/>
			<polygon fill="#583BF5" points="409.875,989.454 378.086,989.454 383.147,1011.522 404.409,1011.522 			"/>
		</g>
	</g>
	
		<line fill="none" stroke="#8878F9" stroke-width="3" stroke-miterlimit="10" x1="477.504" y1="1015.553" x2="477.504" y2="1171.218"/>
</g>
<g>
	<path fill-rule="evenodd" clip-rule="evenodd" fill="#F7E0B2" d="M301.655,318.113c-3.199,3.239-6.391,6.484-9.6,9.712
		c-0.916,0.921-1.823,1.841-2.431,3.007c-0.565,0.149-0.856-0.283-1.171-0.595c-2.517-2.49-5.017-4.997-7.514-7.506
		c-0.293-0.294-0.621-0.578-0.618-1.051c0.432-0.964,1.251-1.61,1.965-2.329c5.258-5.292,10.533-10.565,15.808-15.84
		c1.554-1.554,3.226-2.949,5.281-3.81c2.008,1.378,3.583,3.203,5.159,5.028c0.029,0.135,0.034,0.272,0.011,0.41
		c-0.75,1.381-1.988,2.334-3.098,3.373c-2.536,2.373-3.903,5.16-3.515,8.688C301.969,317.54,301.859,317.843,301.655,318.113z"/>
	<path fill-rule="evenodd" clip-rule="evenodd" fill="#F7E0B2" d="M325.535,362.45c-1.092,1.345-2.435,2.383-3.942,3.218
		c-0.702,0.03-1.074-0.516-1.513-0.907c-3.088-2.751-6.612-3.956-10.726-3.034c-2.1,0.471-3.895,1.511-5.427,3.029
		c-0.477,0.472-0.853,1.157-1.692,1.088c-2.069-0.972-3.605-2.605-5.174-4.191c-1.012-1.023-2.001-2.07-3-3.107
		c-0.145-0.5,0.206-0.79,0.492-1.079c2.202-2.216,4.363-4.476,6.656-6.597c0.562-0.52,1.102-1.339,2.117-1.072
		c1.235,1.198,2.48,2.385,3.704,3.595c2.945,2.912,6.344,2.937,9.373,0.059c0.134-0.128,0.286-0.235,0.43-0.352
		c0.529-0.007,0.829,0.375,1.153,0.697c2.169,2.157,4.343,4.309,6.483,6.494C325.047,360.882,325.635,361.506,325.535,362.45z"/>
	<path fill-rule="evenodd" clip-rule="evenodd" fill="#F7E0B2" d="M308.413,304.984c-0.007-0.083-0.014-0.165-0.02-0.248
		c1.6-1.813,3.332-3.498,5.114-5.125c0.755-0.689,1.659-1.19,2.713-1.322c3.338,0.684,6.168,2.327,8.595,4.667
		c2.086,2.01,4.082,4.115,6.166,6.125c0.593,0.572,0.527,0.865-0.029,1.408c-2.542,2.479-5.071,4.977-7.526,7.542
		c-0.765,0.798-1.176,0.689-1.868-0.047c-1.63-1.737-3.365-3.375-5.024-5.085c-0.895-0.922-1.89-1.659-3.104-2.088
		C312.006,308.653,309.856,307.123,308.413,304.984z"/>
	<path fill-rule="evenodd" clip-rule="evenodd" fill="#F7E0B2" d="M337.455,339.778c-1.604,0.074-2.866-0.485-3.909-1.488
		c-1.646-1.585-3.283-3.186-4.847-4.852c-2.26-2.407-2.202-5.619,0.102-8.016c1.456-1.514,2.938-3.001,4.448-4.46
		c2.729-2.639,6.71-2.27,9.038,0.745c0.495,0.642-0.016,0.81-0.292,1.102c-1.014,1.075-2.193,1.999-2.512,3.593
		c-0.341,1.696,0.059,3.145,1.224,4.366c1.125,1.18,2.32,2.295,3.486,3.436c0.253,0.248,0.682,0.442,0.221,0.872
		c-1.432,1.332-2.621,2.929-4.276,4.011C339.305,339.631,338.35,339.875,337.455,339.778z"/>
	<path fill-rule="evenodd" clip-rule="evenodd" fill="#F7E0B2" d="M303.325,349.798c-0.909,0.396-1.636,1.041-2.321,1.73
		c-2.321,2.333-4.63,4.678-6.944,7.018c-0.546-0.373-1.001-0.835-1.379-1.375c0.762-1.632,1.596-3.21,1.664-5.104
		c0.106-2.969-0.848-5.465-2.896-7.581c-2.52-2.603-5.212-5.038-7.62-7.754c-0.065-0.127-0.111-0.261-0.141-0.399
		c-0.006-2.205-0.214-4.353-1.318-6.346c-0.687-1.241-1.552-2.307-2.548-3.299c-0.548-0.546-1.267-0.98-1.44-1.83
		c0.408-1.204,1.07-2.254,1.94-3.176c3.101,3.05,6.202,6.101,9.303,9.152c-0.873,3.007,0.095,5.361,2.309,7.5
		C295.807,342.074,299.535,345.969,303.325,349.798z"/>
	<path fill-rule="evenodd" clip-rule="evenodd" fill="#F7E0B2" d="M284.015,336.691c3.155,3.085,6.652,5.881,9.17,9.528
		c2.14,3.098,2.04,6.542,0.403,9.924c-0.209,0.432-0.487,0.79-0.909,1.028c-4.254-4.261-8.792-8.248-12.605-12.94
		c0.06-0.498,0.432-0.811,0.715-1.168c1.283-1.617,2.331-3.346,2.734-5.408C283.594,337.3,283.666,336.917,284.015,336.691z"/>
	<path fill-rule="evenodd" clip-rule="evenodd" fill="#F7E0B2" d="M325.535,362.45c-0.819-1.783-2.306-3.014-3.642-4.361
		c-1.668-1.682-3.372-3.327-5.061-4.988c3.848-3.88,7.704-7.751,11.532-11.649c0.5-0.509,0.78-0.4,1.218,0.048
		c0.945,0.968,1.945,1.882,2.923,2.817c0.066,0.603-0.387,0.92-0.729,1.284c-0.543,0.579-1.117,1.127-1.678,1.689
		c-3.351,3.356-4.047,7.135-2.113,11.5c0.133,0.299,0.292,0.587,0.272,0.929C327.441,360.719,326.528,361.625,325.535,362.45z"/>
	<path fill-rule="evenodd" clip-rule="evenodd" fill="#F7E0B2" d="M328.259,359.719c-2.449-2.741-2.299-8.743,0.716-11.823
		c1.172-1.197,2.354-2.386,3.532-3.579c3.11,1.879,6.378,2.398,9.87,1.039C337.628,350.186,332.944,354.952,328.259,359.719z"/>
	<path fill-rule="evenodd" clip-rule="evenodd" fill="#F7E0B2" d="M340.209,304.408c2.021-0.001,6.261,4.179,6.304,6.216
		c0.044,2.094-4.19,6.389-6.301,6.39c-2.102,0.001-6.339-4.295-6.298-6.386C333.954,308.58,338.175,304.409,340.209,304.408z"/>
	<path fill-rule="evenodd" clip-rule="evenodd" fill="#F7E0B2" d="M347.469,321.511c2.052-0.015,6.049,3.935,6.065,5.925
		c0.017,1.958-3.998,6.018-5.952,6.012c-0.185,0-0.37-0.051-0.554-0.082c-1.62-0.28-5.254-3.996-5.456-5.606
		c-0.097-0.772,0.125-1.509,0.592-2.104c1.042-1.323,2.252-2.496,3.545-3.571C346.22,321.663,346.848,321.446,347.469,321.511z"/>
	<path fill-rule="evenodd" clip-rule="evenodd" fill="#F7E0B2" d="M302.234,365.844c1.272-1.08,2.326-2.404,3.836-3.223
		c4.933-2.678,10.24-1.925,14.49,2.107c0.337,0.32,0.688,0.626,1.032,0.939C316.158,369.315,307.571,369.393,302.234,365.844z"/>
	<path fill-rule="evenodd" clip-rule="evenodd" fill="#F7E0B2" d="M357.225,341.451c0.033,0.629-0.1,1.239-0.527,1.691
		c-1.058,1.118-2.099,2.264-3.267,3.258c-1.1,0.937-2.589,0.799-3.706-0.222c-0.963-0.882-1.896-1.804-2.772-2.771
		c-1.082-1.192-1.05-2.833,0.062-4.042c0.852-0.927,1.744-1.822,2.671-2.674c1.185-1.088,2.658-1.211,3.804-0.217
		c1.124,0.974,2.132,2.087,3.167,3.163C357.133,340.133,357.258,340.777,357.225,341.451z"/>
	<path fill-rule="evenodd" clip-rule="evenodd" fill="#F7E0B2" d="M353.606,309.323c0.841,0.047,1.475,0.288,1.991,0.821
		c0.683,0.704,1.404,1.372,2.069,2.092c1.102,1.195,1.119,2.376,0.102,3.63c-0.03,0.036-0.057,0.074-0.088,0.108
		c-4.034,4.486-4.656,3.395-8.168-0.33c-0.7-0.742-0.781-1.779-0.277-2.619c0.846-1.405,2.084-2.498,3.411-3.457
		C352.923,309.368,353.357,309.382,353.606,309.323z"/>
	<path fill-rule="evenodd" clip-rule="evenodd" fill="#F7E0B2" d="M308.413,304.984c1.878,1.764,3.976,3.34,5.016,5.826
		c-2.444-0.675-4.455,0.044-6.201,1.822c-1.824,1.86-3.713,3.657-5.574,5.481c-0.519-3.4,0.217-6.426,2.666-8.94
		C305.683,307.775,307.049,306.38,308.413,304.984z"/>
	<path fill-rule="evenodd" clip-rule="evenodd" fill="#F7E0B2" d="M284.015,336.691c-0.366,3.008-1.704,5.509-3.939,7.54
		c-2.503-3.312-3.724-7.037-3.616-11.191c0.164-0.18,0.374-0.323,0.609-0.297c2.777,0.31,5.271,1.166,6.909,3.641
		C283.99,336.486,284.003,336.588,284.015,336.691z"/>
	<path fill-rule="evenodd" clip-rule="evenodd" fill="#F7E0B2" d="M283.978,336.383c-2.147-1.921-4.522-3.329-7.518-3.344
		c-0.052-2.89,0.53-5.631,1.921-8.182c2.557,2.18,4.742,4.597,5.431,8.052C284.043,334.07,284.004,335.221,283.978,336.383z"/>
	<path fill-rule="evenodd" clip-rule="evenodd" fill="#F7E0B2" d="M316.22,298.289c-2.622,1.224-4.405,3.443-6.42,5.39
		c-0.422,0.408-0.742,0.968-1.408,1.058c-1.672-1.677-3.346-3.355-5.018-5.034C307.482,297.644,311.76,297.135,316.22,298.289z"/>
	<path fill-rule="evenodd" clip-rule="evenodd" fill="#F7E0B2" d="M352.31,299.605c1.083-0.003,3.167,2.029,3.202,3.125
		c0.035,1.082-2.133,3.326-3.211,3.324c-1.049-0.001-3.278-2.297-3.235-3.331C349.11,301.656,351.239,299.609,352.31,299.605z"/>
	<path fill-rule="evenodd" clip-rule="evenodd" fill="#F7E0B2" d="M362.525,326.56c-0.021,1.085-2.113,3.128-3.176,3.103
		c-1.083-0.025-3.107-2.127-3.085-3.202c0.023-1.101,2.122-3.178,3.174-3.142C360.477,323.354,362.546,325.525,362.525,326.56z"/>
	<path fill-rule="evenodd" clip-rule="evenodd" fill="#F7E0B2" d="M332.052,305.824c-0.862-0.015-2.632-1.828-2.569-2.633
		c0.06-0.783,1.847-2.455,2.613-2.445c0.792,0.01,2.527,1.698,2.558,2.49C334.687,304.077,332.917,305.839,332.052,305.824z"/>
	<path fill-rule="evenodd" clip-rule="evenodd" fill="#F7E0B2" d="M363.485,320.106c0.03,0.716-1.253,2.05-1.995,2.073
		c-0.723,0.021-2.048-1.25-2.074-1.991c-0.025-0.706,1.255-2.036,1.984-2.063C362.131,318.099,363.453,319.354,363.485,320.106z"/>
</g>
<path fill="#D7E8F7" d="M375.355,391.5H263.07c-3.076,0-5.576-1.661-5.576-3.709v-0.353c0-2.048,2.5-3.707,5.576-3.707h112.284
	c3.076,0,5.574,1.658,5.574,3.707v0.353C380.929,389.839,378.431,391.5,375.355,391.5z"/>
<path fill="#D7E8F7" d="M328.14,405.5h-67.304c-1.844,0-3.342-1.661-3.342-3.709v-0.353c0-2.048,1.499-3.707,3.342-3.707h67.304
	c1.844,0,3.341,1.658,3.341,3.707v0.353C331.481,403.839,329.984,405.5,328.14,405.5z"/>
</svg>
