<svg xmlns="http://www.w3.org/2000/svg" xmlns:xlink="http://www.w3.org/1999/xlink" width="371" height="339" viewBox="0 0 371 339"><defs><linearGradient id="linear-gradient" x1="-1625.6368" y1="189.8585" x2="-1634.535" y2="182.8623" gradientTransform="translate(1978.7247)" gradientUnits="userSpaceOnUse"><stop offset="0" stop-color="#fff"/><stop offset="0.6429" stop-color="#c6c0b9"/></linearGradient></defs><title>mobile-app-development-company</title><g style="isolation:isolate"><g id="Layer_1" data-name="Layer 1"><path d="M145.1517,38.9166a208.6449,208.6449,0,0,0,78.3738-15.77c14.7493-6.18,49.7362-9.98,72.3386-5.8059,19.6216,3.6238,66.3638,20.1248,46.6478,75.9263S297.61,154.858,316.1584,191.2964c13.6224,26.7612,37.02,53.333,16.5058,74.7175-31.9031,33.256-162.9738,82.5039-231.051,42.3s-82.51-54.6667-62.0589-117.5907S6.9933,120.1434,34.6873,73.4887C51.2978,45.5061,104.9039,39.3567,145.1517,38.9166Z" fill="#f1f3f7"/><path d="M88.2959,225.475c-.6238,1.6778,2.5027,17.3476,3.0378,18.7342,1.7814,4.6136,4.8725,4.4984,8.3376,6.6878-1.8347,1.8684-2.8826,2.6563-7.7846.2349-1.978-.98-4.8753.139-5.61-1.0348-1.6571-2.6683-.1906-.9933-.2469-5.4562-.0562-3.9648-4.6225-13.2055-3.1857-20.6959C83.7236,219.37,88.9182,223.7972,88.2959,225.475Z" fill="#e5989b"/><path d="M96.6823,249.0712c-.8338.5677-6.4083,1.3289-9.5378-1.8124-1.4117-1.4191-1.65-.7449-1.65-.7449s-.7864,3.4783-.22,4.3136c.5648.8382.2174,1.3422,3.3247,1.2728,2.2883-.0444,2.2678.0207,8.03,1.0866,3.0911.572,5.3484-2.1317,3.5967-2.4688A10.7057,10.7057,0,0,1,96.6823,249.0712Z" fill="#473e73"/><path d="M49.6322,200.7258c-1.7369,3.3349-2.5352,9.2082.2646,12.0066,1.3837,1.388,29.0008,5.28,29.9735,6.0061-.7081,3.0069-.3444,5.8289,1.4222,11.5616,3.0762,10.0065,3.3793,13.3415,3.3793,13.3415s6.6758-1.6009,7.6515-1.6009c-.8811-5.6811-1.7519-20.6884-1.8745-23.4513-.1656-3.6366-.003-5.6617-1.7015-7.1121-1.7045-1.4561-27.3437-9.0662-28.7953-9.554C58.4975,201.4413,49.6322,200.7258,49.6322,200.7258Z" fill="#293882"/><path d="M85.2225,227.2267c-.6651,1.7991,2.6713,18.5362,3.2464,20.0144,1.901,4.9345,5.202,4.81,8.9036,7.149-1.96,1.9986-3.0762,2.8383-8.3153.2513-2.1168-1.0466-5.2079.1523-5.9943-1.1028-1.77-2.856-.201-1.0658-.2646-5.8332-.0562-4.2338-4.94-14.11-3.4-22.1121C80.3354,220.7032,85.8863,225.4337,85.2225,227.2267Z" fill="#feadae"/><path d="M94.1781,252.4417c-.89.6016-6.849,1.4205-10.19-1.9365-1.5048-1.5183-1.7576-.8-1.7576-.8s-.8441,3.7149-.241,4.6121c.6061.893.238,1.43,3.5523,1.3571,2.445-.0459,2.4273.0266,8.5784,1.1635,3.3054.612,5.7209-2.2824,3.8493-2.6357A11.5924,11.5924,0,0,1,94.1781,252.4417Z" fill="#473e73"/><path d="M43.8434,200.7863c-1.8507,3.5641-2.7067,9.835.2853,12.8286,1.4812,1.4812,30.9891,5.641,32.0267,6.4156-.7584,3.2123-.3666,6.23,1.5227,12.354,3.2817,10.6894,3.6114,14.255,3.6114,14.255s7.1313-1.71,8.172-1.71c-.9432-6.07-1.8686-22.1047-2.0016-25.0568-.1789-3.8878.2231-6.77-1.5891-8.3226-1.82-1.5566-22.4978-6.7734-30.08-10.685C54.3347,200.1153,43.8434,200.7863,43.8434,200.7863Z" fill="#2b3990"/><ellipse cx="274.0023" cy="261.5408" rx="13.4078" ry="1.4145" fill="#e9e8ea"/><rect x="86.7305" y="33" width="189.8549" height="161.7784" rx="3.3757" ry="3.3757" fill="#fff"/><g opacity="0.11"><rect x="100.4239" y="142.1357" width="73.1003" height="30.8875" rx="4.2786" ry="4.2786" fill="#a8a7a5"/><rect x="105.2629" y="147.9013" width="39.9478" height="4.1183" fill="#f7f7f7"/><rect x="105.2629" y="154.9025" width="39.9478" height="4.1183" fill="#f7f7f7"/><rect x="105.2629" y="161.9036" width="20.1798" height="4.1183" fill="#f7f7f7"/><rect x="145.2107" y="166.022" width="10.2958" height="4.1183" fill="#f7f7f7"/><rect x="158.3894" y="166.022" width="10.2958" height="4.1183" fill="#f7f7f7"/><rect x="189.7916" y="142.1357" width="73.1003" height="30.8875" rx="4.019" ry="4.019" fill="#a8a7a5"/><rect x="194.6306" y="147.9013" width="39.9478" height="4.1183" fill="#f7f7f7"/><rect x="194.6306" y="154.9025" width="39.9478" height="4.1183" fill="#f7f7f7"/><rect x="194.6306" y="161.9036" width="20.1798" height="4.1183" fill="#f7f7f7"/><rect x="234.5784" y="166.022" width="10.2958" height="4.1183" fill="#f7f7f7"/><rect x="247.757" y="166.022" width="10.2958" height="4.1183" fill="#f7f7f7"/><g opacity="0.47"><path d="M273.8438,33H89.472A2.9764,2.9764,0,0,0,86.73,36.1508V43.798H276.5853V36.1508A2.9765,2.9765,0,0,0,273.8438,33Z" fill="#a8a7a5"/></g><rect x="100.4239" y="55.6508" width="73.1003" height="30.8875" rx="4.2008" ry="4.2008" fill="#a8a7a5"/><rect x="105.2629" y="61.4165" width="39.9478" height="4.1183" fill="#f7f7f7"/><rect x="105.2629" y="68.4176" width="39.9478" height="4.1183" fill="#f7f7f7"/><rect x="105.2629" y="75.4188" width="20.1798" height="4.1183" fill="#f7f7f7"/><rect x="145.2107" y="79.5371" width="10.2958" height="4.1183" fill="#f7f7f7"/><rect x="158.3894" y="79.5371" width="10.2958" height="4.1183" fill="#f7f7f7"/><rect x="100.3209" y="103.4234" width="144.5533" height="6.1775" fill="#a8a7a5"/><rect x="100.3209" y="113.7192" width="144.5533" height="6.1775" fill="#a8a7a5"/><circle cx="105.6429" cy="38.3452" r="3.3531" transform="translate(66.8651 143.83) rotate(-89.7652)" fill="#a8a7a5"/><circle cx="116.0747" cy="38.388" r="3.3531" transform="translate(77.2113 154.3043) rotate(-89.7652)" fill="#a8a7a5"/><circle cx="95.2111" cy="38.3024" r="3.3531" transform="translate(56.5188 133.3558) rotate(-89.7652)" fill="#a8a7a5"/><rect x="189.7916" y="55.6508" width="73.1003" height="30.8875" rx="4.1911" ry="4.1911" fill="#a8a7a5"/><rect x="194.6306" y="61.4165" width="39.9478" height="4.1183" fill="#f7f7f7"/><rect x="194.6306" y="68.4176" width="39.9478" height="4.1183" fill="#f7f7f7"/><rect x="194.6306" y="75.4188" width="20.1798" height="4.1183" fill="#f7f7f7"/><rect x="234.5784" y="79.5371" width="10.2958" height="4.1183" fill="#f7f7f7"/><rect x="247.757" y="79.5371" width="10.2958" height="4.1183" fill="#f7f7f7"/></g><polygon points="313.28 193.885 310.083 193.885 306.885 173.486 309.316 173.486 313.28 193.885" fill="#d6d6d6"/><polygon points="312.362 193.885 299.884 193.885 296.686 173.486 309.165 173.486 312.362 193.885" fill="#e8e8e8"/><rect x="299.716" y="193.4224" width="13.5639" height="1.5217" fill="#d6d6d6"/><rect x="313.28" y="193.4224" width="17.102" height="1.5217" fill="#d6d6d6"/><path d="M305.5088,184.6774c.3612,1.5616.107,3.2481-.5678,3.7669s-1.5145-.3264-1.8755-1.888-.107-3.2481.5677-3.7669S305.1476,183.1159,305.5088,184.6774Z" fill="#d6d6d6"/><path d="M356.5,254.2643c-.0093,0-.0182.003-.028.003a4.5979,4.5979,0,0,0-4.4832-3.61h-5.9519V240.4431h-.907V218.5365h-.6v-.1816h-.8883v.1816H342.228v21.9066h-.7258v10.2144h-5.3186a4.5982,4.5982,0,0,0-4.4879,3.6275,2.0122,2.0122,0,1,0,.6276.0248,3.9805,3.9805,0,0,1,3.86-3.0376h7.1881v3.0234a2.0427,2.0427,0,1,0,.6147,0v-3.0231h8.0028a3.9811,3.9811,0,0,1,3.877,3.1027,2.0189,2.0189,0,1,0,.6341-.1105Z" fill="#524e64"/><path d="M359.8033,167.811l-1.4516.0208a5.5271,5.5271,0,0,0-5.5058,5.5471l.5336,37.2476a5.527,5.527,0,0,0,5.6625,5.3871l1.4516-.0208a5.527,5.527,0,0,0,5.5058-5.5471l-.5336-37.2476A5.5271,5.5271,0,0,0,359.8033,167.811Z" fill="#524e64"/><path d="M324.249,214.2373h36.0437a4.6034,4.6034,0,0,1,0,9.2068H324.249a4.6034,4.6034,0,0,1,0-9.2068Z" fill="#524e64"/><path d="M309.1744,226.4064c.6238,1.65-2.5027,17.0559-3.0378,18.4192-1.7814,4.536-4.8725,4.4228-8.3376,6.5753,1.8347,1.837,2.8826,2.6117,7.7846.231,1.978-.9635,4.8753.1366,5.61-1.0174,1.6571-2.6234.1906-.9766.2469-5.3644.0562-3.8982,4.6225-12.9835,3.1857-20.3479C313.7467,220.4038,308.5521,224.7568,309.1744,226.4064Z" fill="#e5989b"/><path d="M300.7881,249.6059c.8338.5581,6.4083,1.3066,9.5378-1.7819,1.4117-1.3953,1.65-.7324,1.65-.7324s.7864,3.42.22,4.2411c-.5648.8241-.2174,1.32-3.3247,1.2514-2.2883-.0436-2.2678.02-8.03,1.0683-3.0911.5624-5.3484-2.0958-3.5967-2.4273A10.7817,10.7817,0,0,0,300.7881,249.6059Z" fill="#473e73"/><path d="M347.8381,202.0733c1.7369,3.2789,2.5352,9.0533-.2646,11.8047-1.3837,1.3646-29.0008,5.1915-29.9735,5.9051.7081,2.9564.3444,5.7308-1.4222,11.3672-3.0762,9.8383-3.3793,13.1171-3.3793,13.1171s-6.6758-1.574-7.6515-1.574c.8811-5.5856,1.7519-20.3406,1.8745-23.057.1656-3.5755.003-5.5665,1.7015-6.9925,1.7045-1.4316,27.3437-8.9137,28.7953-9.3934C338.9728,202.7768,347.8381,202.0733,347.8381,202.0733Z" fill="#293882"/><path d="M312.2478,228.1287c.6651,1.7688-2.6713,18.2245-3.2464,19.6778-1.901,4.8516-5.202,4.73-8.9036,7.0288,1.96,1.965,3.0762,2.7906,8.3153.2471,2.1168-1.029,5.2079.15,5.9943-1.0842,1.77-2.808.201-1.0479.2646-5.7352.0562-4.1626,4.94-13.8729,3.4-21.74C317.1349,221.7148,311.584,226.3658,312.2478,228.1287Z" fill="#feadae"/><path d="M303.2923,252.92c.89.5915,6.849,1.3966,10.19-1.904,1.5048-1.4928,1.7576-.7863,1.7576-.7863s.8441,3.6524.241,4.5346c-.6061.8779-.238,1.4055-3.5523,1.3343-2.445-.0451-2.4273.0262-8.5784,1.1439-3.3054.6017-5.7209-2.2441-3.8493-2.5914A11.6751,11.6751,0,0,0,303.2923,252.92Z" fill="#473e73"/><path d="M353.627,202.1328c1.8507,3.5042,2.7067,9.67-.2853,12.6129-1.4812,1.4563-30.9891,5.5461-32.0267,6.3077.7584,3.1583.3666,6.1248-1.5227,12.1463-3.2817,10.51-3.6114,14.0153-3.6114,14.0153s-7.1313-1.6816-8.172-1.6816c.9432-5.9678,1.8686-21.733,2.0016-24.6355.1789-3.8224-.2231-6.6566,1.5891-8.1827,1.82-1.53,22.4978-6.66,30.08-10.5053C343.1356,201.4731,353.627,202.1328,353.627,202.1328Z" fill="#2b3990"/><polygon points="331.76 186.015 336.228 178.844 338.257 186.646 332.995 190.198 331.525 189.011 331.76 186.015" fill="#cc9987"/><path d="M338.683,168.96a26.0153,26.0153,0,0,0-2.8117,2.9818l1.4841,3.9559,2.3564-5.4371Z" fill="#f4cf7a"/><path d="M347.3693,170.4753c-1.0009-1.8907-5.0764-4.8769-6.3432-14.3481-.5235-3.9011-6.8208,9.8114-6.8208,9.8114,2.3119.9549,4.0313,2.58,3.638,5.7741-1.4635,5.9353-2.7968,9.85-2.4865,9.6384C334.5232,184.8456,348.1218,170.9573,347.3693,170.4753Z" fill="#feadae"/><path d="M335.8,167.25l8.6523,5.7563,1.9529-1.8863a12.7178,12.7178,0,0,0-1.53-3.6572,37.45,37.45,0,0,1-3.0614-7.1563S338.8958,165.2822,335.8,167.25Z" fill="#e5989b"/><path d="M342.1925,169.73c-.964.7984-5.554,5.9265-5.554,5.9265-.7317,2.3711-2.2455,5.0394-3.1442,7.8185a6.0088,6.0088,0,0,0,.86,4.8946c.7495,1.0525,2.7777,5.9235,2.7777,7.007,0,2.1865-3.6115,6.75-3.6115,6.75s23.5844,9.8394,23.0936,5.888c-.949-7.6028-4.0254-14.0658-5.233-26.6164-.2825-2.915-.5618-6.54-2.2278-9.5377a25.64,25.64,0,0,0-3.4991-4.08C343.7727,168.6984,343.6293,168.5446,342.1925,169.73Z" fill="#fbdb8a"/><path d="M335.8536,177.4543c2.4776-4.6107,2.8648-4.25,3.6232-5.9427.4612-1.0392.541.6446.541.6446Z" fill="#f4cf7a"/><path d="M336.9623,173.0963c.1315.6489-2.8739,9.0574-2.8739,9.0574l2.6062-3.8672.67-4.7733Z" fill="#f4cf7a"/><path d="M348.7959,174.684l.6933,1.4989s.7377,7.6249,1.71,12.5994c.8574,4.3682,3.07,8.89,2.2558,9.4535-.1789.1226-1.3186,1.7784-1.8774,1.5729-3.3026-1.1856-11.3251-8.7751-11.3251-8.7751l2.9624-14.0953Z" fill="url(#linear-gradient)" style="mix-blend-mode:multiply"/><polygon points="340.362 174.851 338.367 171.665 344.742 165.834 346.092 167.952 340.362 174.851" fill="#f4cf7a"/><path d="M330.5436,165.06a21.3076,21.3076,0,0,0,.1184-3.7238c-.1331-.5056-.5263-1.4161-.5618-1.5669-1.1753-5.2376.5795-8.2769,4.7423-9.2022,4.1672-.93,6.4157.9061,7.5821,6.1481,1.1663,5.2389-1.023,8.4-3.1739,10.2089-.7169.612-3.567,1.9381-4.54,1.8553-.8117-.0695-1.975-1.2328-2.7157-3.0024C331.5519,165.7507,330.7032,165.76,330.5436,165.06Z" fill="#feadae"/><path d="M329.6212,155.357a1.2892,1.2892,0,0,0,.8958.2056c.0887-.0059-.0607-.2336.0326-.2366a5.0641,5.0641,0,0,1,2.5307.7066c.1966.0887.5351-.2262.7407-.099.6253.3636.7346.7731,1.4635,1.1959.1966.1641.6874.5484.89.7333.2025.1877.4759.0651.69.2794.3533.3577.7555.2439,1.1309.6859.2941.3651.8648.1552.97-.5218,0,0,.6623-1.0053,1.335-.0843,1.0228,1.39-.071,3.1531-.071,3.1531l2.7747,2.4583s6.1022-5.1828,2.2411-11.4624c-3.641-5.9294-9.7966-3.783-14.2078-1.1545C329.0505,152.3975,329.6212,155.357,329.6212,155.357Z" fill="#3d4177"/><path d="M331.5519,155.4605c2.374-.71,2.7835-3.1531,4.6166-4.8784,1.833-1.7222,5.14-1.9424,5.9294-1.3363-1.295-.1449-4.0668-.742-5.5658,2.4732-1.4945,3.2167-1.9942,4.2028-3.267,4.3579A1.657,1.657,0,0,1,331.5519,155.4605Z" fill="#3d4177"/><path d="M331.8844,155.5713c1.41-1.58.7613-2.6683,2.9847-4.5559a9.4148,9.4148,0,0,1,5.2523-1.9647s-3.7-.1272-6.02,1.91c-2.315,2.0371-3.8434,4.7335-3.1871,4.8369A1.091,1.091,0,0,0,331.8844,155.5713Z" fill="#3d4177"/><path d="M340.3593,148.83c-.3356-.0562-5.3986.0621-8.3966,3.3985-2.0237,2.2544-.9282,3.0867-1.1633,3.3349-.241.25-.52-.1123-.5292-.3074-.0118-.1907-.711-1.9912,2.4273-4.3047A12.1358,12.1358,0,0,1,340.3593,148.83Z" fill="#3d4177"/><path d="M334.8247,156.6343c1.4458-.1553,1.7074-1.6927,3.15-4.2,1.44-2.5013,2.3549-1.9293,2.3549-1.9293a1.5631,1.5631,0,0,0-1.5847,1.4917c-.0931,1.5048-2.6949,5.0587-3.2906,5.103A.5238.5238,0,0,1,334.8247,156.6343Z" fill="#3d4177"/><path d="M335.4545,157.1c.4257.34.6489,1.3363,1.74-.3933,1.0925-1.7266,1.9942-4.2854,2.3563-4.6254.3579-.3474.0207.0813-.47,1.41-.479,1.3276-1.4635,4.6891-2.2307,4.7763C336.0827,158.3565,335.4545,157.1,335.4545,157.1Z" fill="#3d4177"/><path d="M341.3926,148.69a2.7952,2.7952,0,0,1,2.7216-3.468c.3459-.0266.8426-.6548,1.2461-.5869a19.2983,19.2983,0,0,1,2.015.7215c2.9388,1.1087,4.5989,7.0853-3.199,8.1734C341.4961,153.8994,341.3926,148.69,341.3926,148.69Z" fill="#3d4177"/><path d="M342.5014,150.0145c2.7111-.8367,3.9454-5.5509,2.63-5.2109-.7732.1982,1.28-.9282,1.5418.7437.2617,1.6763-3.258,5.162-3.258,5.162s4.4392-3.5434,3.82-5.375c1.2965.0932.1907,4.6315-1.86,5.6486-2.0519,1.0169-1.27.7272-1.27.7272Z" fill="#3d4177"/><path d="M344.1142,145.222c-.2262.6638-1.14,4.2664-1.8686,4.6-.7346.3282.4494.3015.4494.3015a4.9918,4.9918,0,0,0,1.6837-4.6669C344.3137,145.0963,344.1142,145.222,344.1142,145.222Z" fill="#3d4177"/><path d="M333.8549,189.8555a5.1867,5.1867,0,0,1-.9579-5.6042c-1.0156,1.3748-1.4456,2.2839-2.3386,2.457-.8041.1552-6.3358,1.2062-9.2007,1.5832a19.5017,19.5017,0,0,0-3.5493-.6874,6.586,6.586,0,0,0-2.4126.4818c-.5322.3769-2.1094,1.505-1.6986,1.8981.176.1641.3592-.0339,1.0024-.5129a1.8362,1.8362,0,0,1,1.2284-.4968c.5957.0074,1.9306.1789,1.9306.1789s-2.1391.5381-1.9247.9815c.0931.2056.2764.25,1.2373.1005.9608-.1477,1.6394.7007,2.7007.5366.6845-.1049.9284-.1434,1.66-.2941C323.915,190.6522,335.4337,191.4314,333.8549,189.8555Z" fill="#e5989b"/><path d="M343.715,177.2074c-.6682.4833-3.5331,6.8237-6.9153,10.2888-.4466.4567-10.5047,2.5175-10.6865,2.4037a8.711,8.711,0,0,0-1.737-.9609,10.318,10.318,0,0,0-2.754-.2912c-.6017.3933.9992.5026.9992.5026s-2.2971-.04-2.8766-.0206a3.5166,3.5166,0,0,0-1.6247.708c-.4095.2455-.4641.6874.1374.5353.6032-.1538,1.0319-.6268,1.5316-.5233a5.5558,5.5558,0,0,0,1.1723.0162,5.9786,5.9786,0,0,0-1.5434.0695,7.7645,7.7645,0,0,0-1.595.7717s-.3474.6.0621.541a10.4418,10.4418,0,0,0,1.9868-.5618l1.3571-.1907s-3.2211.4523-3.1442,1.0245c.0413.2749.0059.2143,1.119-.0887,1.4191-.3948,1.1635.0221,1.1635.0221s-1.0038.1626-1.533.281c-.4095.0887-.6874.3059.1167.4361a10.1229,10.1229,0,0,1,2.0224.2054,13.1258,13.1258,0,0,0,5.3484.4317c8.0625,1.0082,12.7382-.0828,14.283-1.2,1.5493-1.1265,10.3539-11.7552,8.3759-15.7126C348.3568,174.6485,344.3729,176.7254,343.715,177.2074Z" fill="#feadae"/><polygon points="102.887 250.694 102.887 252.95 105.167 253.155 105.582 250.694 102.887 250.694" fill="#feadae"/><polygon points="119.267 250.694 119.267 252.95 116.986 253.155 116.572 250.694 119.267 250.694" fill="#feadae"/><path d="M129.4261,142.4937l3.6028,8.2634-.9239.3941L128.5,142.8834a.1842.1842,0,0,1,.0992-.2437l.5823-.2432A.1878.1878,0,0,1,129.4261,142.4937Z" fill="#364469"/><path d="M129.4023,144.5132l.6011-.2564-1.0108-2.3185a.3287.3287,0,0,0-.43-.1691h0a.3225.3225,0,0,0-.1709.4255Z" fill="#364469"/><path d="M119.9558,162.1134s3.5421,9.6239,4.8308,9.5779c.9683-.0346,7.4433-8.79,8.4851-10.3053s3.0642-5.0768,3.0642-5.0768l-2.6352-.8108s-4.5349,5.4026-5.6993,6.3726-1.6546,1.3336-1.6546,1.3336l-1.3484-3.6439Z" fill="#feadae"/><path d="M121.9154,152.0869c1.4267.3754,1.9188,1.6308,2.5316,4.2223a51.1976,51.1976,0,0,0,1.5039,5.0373l-4.6906,2.1612s-.8459-4.607-1.1583-7.5168S120.6707,151.7594,121.9154,152.0869Z" fill="#f4cf7a"/><path d="M104.0989,182.46s-1.2049,10.8359-1.2472,22.4772-.7431,46.2314-.7431,46.2314h4.7528s4.9-33.4259,6.6816-40.91S119.9558,182.6,119.9558,182.6Z" fill="#2b3990"/><path d="M111.4057,143.1065s-.3078,2.37-.56,3.5755a9.5625,9.5625,0,0,1-.6488,2.2095,27.1379,27.1379,0,0,1-2.94,3.3027s7.88,4.115,10.1962,4.115,1.5045-4.5964,1.5045-4.5964-2.5259-1.9748-2.9022-2.9727a22.2123,22.2123,0,0,1-.5864-3.8874Z" fill="#feadae"/><path d="M114.4336,194.35s.8907,17.7375,1.0688,21.23,0,35.57,0,35.57,4.4535.1191,4.4535,0,4.1988-33.8254,4.743-42.4311.2252-18.8073.9476-19.9976-1.95-6.2056-1.95-6.2056l-6.3034,1.6631Z" fill="#2b3990"/><path d="M108.862,149.8773l-8.1012,3.4568a70.4656,70.4656,0,0,1,1.6909,9.0635c.0891,2.5778,1.0236,22.941,1.0236,22.941s2.4871,3.8108,14.4536,2.2935a12.5152,12.5152,0,0,0,6.8831-2.81s-1.2936-22.4247-1.65-25.0024-1.2469-7.7332-1.2469-7.7332l-3.9031-1.188-1.5931,2.35Z" fill="#fbdb8a"/><polygon points="109.223 148.48 116.419 153.249 114.441 155.498 108.862 149.877 109.223 148.48" fill="#f4cf7a"/><polygon points="116.419 153.249 118.382 154.808 118.012 150.899 117.278 149.877 116.419 153.249" fill="#f4cf7a"/><path id="_Path_" data-name="&lt;Path&gt;" d="M124.0035,167.2253l6.9182,1.9771a1.6238,1.6238,0,0,0,1.8456-.8067l6.7368-14.2381a1.0624,1.0624,0,0,0-.7137-1.522l-6.8571-2.0039c-1.249-.121-1.8727.12-2.1894.7751l-6.7526,14.13C122.6719,166.1977,122.7934,166.6609,124.0035,167.2253Z" fill="#a8a7a5"/><path id="_Path_2" data-name="&lt;Path&gt;" d="M124.394,167.3682l6.9515,1.99a1.63,1.63,0,0,0,1.8551-.8076l6.7631-14.3015a1.0668,1.0668,0,0,0-.72-1.5271l-6.8933-2.01a1.6789,1.6789,0,0,0-1.9232.8084l-6.8093,14.26A1.1138,1.1138,0,0,0,124.394,167.3682Z" fill="#e8e8e8"/><path d="M104.3156,163.538s6.4322,10.56,7.29,10.9239,11.9552-6.7833,14.0388-8.1169,3.8276-2.6445,4.0881-2.8567a10.9157,10.9157,0,0,0,.858-2.3565,3.3311,3.3311,0,0,1-.2911-.3789l-.2758.144.1455-.8563-.26-.4849-.2527.0833-.0843-.8638-.383-.6517s-1.0929,1.2225-1.767,1.95a9.9386,9.9386,0,0,1-1.4708,1.273,10.4043,10.4043,0,0,0,0-1.3942,3.9142,3.9142,0,0,1,.1226-1.03l-1.0751.639s-.9473,2.9557-1.1311,3.189a5.4227,5.4227,0,0,1-3.248,3.0219c-4.6081,1.7365-7.167,2.3895-7.167,2.3895.182-.0259-4.1956-7.8918-4.1956-7.8918Z" fill="#feadae"/><path d="M100.4573,157.3245c.6121,2.8759,4.8694,9.1535,4.8694,9.1535l5.222-3.87s-2.0444-4.0438-3.1856-6.1621c-1.2632-2.3448-2.4407-5.1931-4.675-4.3619C100.5308,152.8862,99.967,155.021,100.4573,157.3245Z" fill="#f4cf7a"/><path d="M120.56,137.0416c.5569.4993,1.481,1.5025,1.4068,2.0887a11.8478,11.8478,0,0,0-.4931,3.2928,12.3721,12.3721,0,0,1-.71,4.6315c-.42,1.1173,0,1.1138-1.3512,1.5593a14.6993,14.6993,0,0,1-3.6031-.2228c-.7037-.1078-4.465-3.0664-3.8172-5.5119,0,0-.7978.1027-1.2875-2.3155-.1277-.6307,2.4638-2.4229,2.8668-3.0481.9793-1.5195,4.5517-.3234,5.573-.2453A2.1562,2.1562,0,0,0,120.56,137.0416Z" fill="#feadae"/><path d="M121.967,139.13s-.2-.8565-.9924-.6734a8.79,8.79,0,0,1-3.5338-.2435,8.9254,8.9254,0,0,1-2.1977-1.002,5.2242,5.2242,0,0,1-.7176,1.8716,3.5509,3.5509,0,0,0-.8067,1.5439c-.1477.4854-.7745.6266-.7745.6266s-.2866-1.3608-.9034-1.4565c-1.2224-.19-1.0745,1.4423-.5714,1.9737a10.1171,10.1171,0,0,0,1.0317.9391,6.1671,6.1671,0,0,1-.3917,1.2091,5.8373,5.8373,0,0,1-1.0028,1.2166,17.6608,17.6608,0,0,0-1.0986-4.7344c-.7765-1.4886-.7283-4.2273,1.5134-4.804a3.1716,3.1716,0,0,1,3.4574-2.3487c2.9454.1243,5.2983,1.288,6.5972,1.1646a4.0261,4.0261,0,0,0,1.684-.3889s.6485,2.1068-.1959,3.2241A7.3581,7.3581,0,0,0,121.967,139.13Z" fill="#3d4177"/><path id="_Path_3" data-name="&lt;Path&gt;" d="M119.7476,252.2628a5.0263,5.0263,0,0,1-1.5531.3189,3.7749,3.7749,0,0,1-1.5295-.3189,4.6586,4.6586,0,0,0-.7385,4.1964.3038.3038,0,0,0,.2845.1906h10.5667a.2355.2355,0,0,0,.2395-.2267c.0035-.2577-.1011-.6678-.7428-.8623-.9751-.2956-1.9816-.459-2.7365-.7234s-1.8387-1.3613-2.4456-1.5635A3.2873,3.2873,0,0,1,119.7476,252.2628Z" fill="#473e73"/><path id="_Path_4" data-name="&lt;Path&gt;" d="M105.56,252.2628a5.0263,5.0263,0,0,1-1.5531.3189,3.7749,3.7749,0,0,1-1.5295-.3189,4.6586,4.6586,0,0,0-.7385,4.1964.3038.3038,0,0,0,.2845.1906h10.5667a.2355.2355,0,0,0,.2395-.2267c.0035-.2577-.1011-.6678-.7428-.8623-.9751-.2956-1.9816-.459-2.7365-.7234s-1.8387-1.3613-2.4456-1.5635A3.2873,3.2873,0,0,1,105.56,252.2628Z" fill="#473e73"/><path d="M348.0168,173.0061c2.3829,1.6483,1.4191,9.4077-.42,14.6039-4.0653-2.1155-8.57-4.2427-8.57-4.2427s2.5737-6.2176,3.2789-8.027C343.3824,172.5656,345.9946,171.6062,348.0168,173.0061Z" fill="#f4cf7a"/><polygon points="179.415 195.333 168.685 195.333 170.618 184.602 177.482 184.602 179.415 195.333" fill="#a8a7a5"/><rect x="153.9214" y="160.2598" width="40.257" height="27.6968" rx="3" ry="3" fill="#e8e8e8"/><rect x="155.5317" y="162.0585" width="37.0364" height="24.0994" fill="#f7f7f7"/><path d="M157.251,193.2971h33.5979a.8336.8336,0,0,1,.8336.8336v1.2019a0,0,0,0,1,0,0H156.4174a0,0,0,0,1,0,0v-1.2019A.8336.8336,0,0,1,157.251,193.2971Z" fill="#e8e8e8"/><g opacity="0.17"><rect x="160.3616" y="180.3023" width="11.7896" height="4.9815" rx="2.2562" ry="2.2562" fill="#a8a7a5"/><rect x="161.1421" y="181.2322" width="6.4427" height="0.6642" fill="#f7f7f7"/><rect x="161.1421" y="182.3613" width="6.4427" height="0.6642" fill="#f7f7f7"/><rect x="161.1421" y="183.4904" width="3.2546" height="0.6642" fill="#f7f7f7"/><rect x="167.5848" y="184.1546" width="1.6605" height="0.6642" fill="#f7f7f7"/><rect x="169.7103" y="184.1546" width="1.6605" height="0.6642" fill="#f7f7f7"/><rect x="174.7748" y="180.3023" width="11.7896" height="4.9815" rx="2.2562" ry="2.2562" fill="#a8a7a5"/><rect x="175.5552" y="181.2322" width="6.4427" height="0.6642" fill="#f7f7f7"/><rect x="175.5552" y="182.3613" width="6.4427" height="0.6642" fill="#f7f7f7"/><rect x="175.5552" y="183.4904" width="3.2546" height="0.6642" fill="#f7f7f7"/><rect x="181.998" y="184.1546" width="1.6605" height="0.6642" fill="#f7f7f7"/><rect x="184.1234" y="184.1546" width="1.6605" height="0.6642" fill="#f7f7f7"/><g opacity="0.47"><path d="M192.0645,162.0254H155.9807a.5245.5245,0,0,0-.5365.5082v1.2333h37.1569v-1.2333A.5245.5245,0,0,0,192.0645,162.0254Z" fill="#a8a7a5"/></g><rect x="160.3616" y="166.3541" width="11.7896" height="4.9815" rx="2.2562" ry="2.2562" fill="#a8a7a5"/><rect x="161.1421" y="167.284" width="6.4427" height="0.6642" fill="#f7f7f7"/><rect x="161.1421" y="168.4131" width="6.4427" height="0.6642" fill="#f7f7f7"/><rect x="161.1421" y="169.5422" width="3.2546" height="0.6642" fill="#f7f7f7"/><rect x="167.5848" y="170.2064" width="1.6605" height="0.6642" fill="#f7f7f7"/><rect x="169.7103" y="170.2064" width="1.6605" height="0.6642" fill="#f7f7f7"/><rect x="160.345" y="174.0588" width="23.3134" height="0.9963" fill="#a8a7a5"/><rect x="160.345" y="175.7193" width="23.3134" height="0.9963" fill="#a8a7a5"/><circle cx="159.1766" cy="162.8875" r="0.5408" transform="translate(-4.3618 321.3952) rotate(-89.7652)" fill="#a8a7a5"/><circle cx="160.859" cy="162.8944" r="0.5408" transform="translate(-2.6932 323.0845) rotate(-89.7652)" fill="#a8a7a5"/><circle cx="157.4942" cy="162.8806" r="0.5408" transform="translate(-6.0305 319.7059) rotate(-89.7652)" fill="#a8a7a5"/><rect x="174.7748" y="166.3541" width="11.7896" height="4.9815" rx="2.2562" ry="2.2562" fill="#a8a7a5"/><rect x="175.5552" y="167.284" width="6.4427" height="0.6642" fill="#f7f7f7"/><rect x="175.5552" y="168.4131" width="6.4427" height="0.6642" fill="#f7f7f7"/><rect x="175.5552" y="169.5422" width="3.2546" height="0.6642" fill="#f7f7f7"/><rect x="181.998" y="170.2064" width="1.6605" height="0.6642" fill="#f7f7f7"/><rect x="184.1234" y="170.2064" width="1.6605" height="0.6642" fill="#f7f7f7"/></g><path d="M137.7016,163.1046h8.6621a2.1215,2.1215,0,0,1,2.1215,2.1215v30.1064a0,0,0,0,1,0,0H135.58a0,0,0,0,1,0,0V165.2261A2.1215,2.1215,0,0,1,137.7016,163.1046Z" fill="#e8e8e8"/><rect x="136.8395" y="165.2785" width="10.3863" height="2.7777" fill="#a8a7a5"/><rect x="136.8395" y="168.6601" width="10.3863" height="2.7777" fill="#a8a7a5"/><circle cx="142.0327" cy="184.5717" r="1.4191" fill="#a8a7a5"/><circle cx="142.0327" cy="187.9566" r="0.7095" fill="#a8a7a5"/><path d="M154.6727,191.6871h1.6082a3.3021,3.3021,0,0,1,3.3021,3.3021v.3433a0,0,0,0,1,0,0h-8.2124a0,0,0,0,1,0,0v-.3433a3.3021,3.3021,0,0,1,3.3021-3.3021Z" fill="#a8a7a5"/><path d="M39.8791,254.0283c.0094,0,.0184.003.0282.003a4.6388,4.6388,0,0,1,4.5231-3.642h6.0049V240.084H51.35V217.9822h.6051v-.1832h.8963v.1832h1.4269V240.084h.7322v10.3054h5.366a4.6392,4.6392,0,0,1,4.5279,3.66,2.03,2.03,0,1,1-.6332.025,4.016,4.016,0,0,0-3.8947-3.0647H53.1247v3.05a2.0609,2.0609,0,1,1-.62,0v-3.05H44.43a4.0166,4.0166,0,0,0-3.9116,3.13,2.0369,2.0369,0,1,1-.64-.1115Z" fill="#524e64"/><path d="M32.5246,167.2436l1.46-.1112a5.5763,5.5763,0,0,1,6.0368,5.0729L42.874,209.68a5.5763,5.5763,0,0,1-5.2,5.928l-1.46.1112a5.5763,5.5763,0,0,1-6.0368-5.0729L27.325,173.1717A5.5763,5.5763,0,0,1,32.5246,167.2436Z" fill="#524e64"/><path d="M72.4177,213.6447H36.0529a4.6444,4.6444,0,0,0,0,9.2888H72.4177a4.6444,4.6444,0,0,0,0-9.2888Z" fill="#524e64"/><rect x="78.0863" y="197.5447" width="244.4732" height="6.3727" fill="#e8e8e8"/><rect x="70.7633" y="194.8585" width="259.1191" height="4.6833" fill="#a8a7a5"/><rect x="147.5174" y="198.402" width="3.9377" height="58.8351" fill="#a8a7a5"/><rect x="237.0193" y="198.402" width="3.9377" height="58.8351" fill="#a8a7a5"/><rect x="320.8754" y="198.402" width="4.945" height="58.8351" fill="#a8a7a5"/><path d="M61.8087,166.2869c2.0986,2.0889,2.2408,12.5875,4.3641,18.0371,0,0,14.47,5.6572,21.0651,7.3185l-2.29,2.4128s-19.6056-4.7124-22.0922-6.3669c-3.8-2.5287-6.01-12.7585-6.3721-17.8762S59.6154,164.1036,61.8087,166.2869Z" fill="#e5989b"/><path d="M85.6291,192.0208l1.6087-.3783s3.3089-.3026,4.3681-.4539,2.3263,1.0592,3.7733,1.5131a13.778,13.778,0,0,1,2.8492,1.3536h-1.156l-2.3573.3865-2.1258-.3865a20.9194,20.9194,0,0,0-3.99,0,17.2512,17.2512,0,0,1-3.6512,0Z" fill="#e5989b"/><path d="M54.8126,165.3351c.5788,1.9666,4.6823,1.928,7.7121-1.7444s5.2251-9.9308,2.2016-14.3529-7.0676,4.1423-8.4447,8.6967A31.9688,31.9688,0,0,0,54.8126,165.3351Z" fill="#3d4177"/><path d="M64.3613,149.1765c.8127.9652.0349,4.6413-.1075,5.1873-.2754,1.0558.02,2.0713-.2381,2.5254-.1937.3407-.38.3282-.9008.45-.0552.013-1.3653,2.7528-1.6173,3.3318-.3834.8807-2.4486-.68-3.0737-.0186-.453.4793-.473,1.3672-.6261,2.4689l1.2075,4.8759L49.151,166.1a48.0284,48.0284,0,0,0,3.6112-6.243c.7345-1.9586-.1836-4.1008.0612-6.7328s1.42-6.0143,5.1414-6.3654A7.3789,7.3789,0,0,1,64.3613,149.1765Z" fill="#feadae"/><path d="M61.245,198.85a20.8853,20.8853,0,0,0-6.6019,0c-4.0995.549-10.1742-.6-10.1742-.6s2.49-12.8366,2.3364-18.6585-.6129-12.1033-.6129-12.1033l10.916-1.8385s2.6428.9459,4.1366,5.209S62.5089,193.5133,61.245,198.85Z" fill="#fbdb8a"/><path d="M57.7978,163.1217c.8044.8044,3.4472,1.8385,3.4472,2.9876s2.0682,11.0308,1.9533,13.0991-.8745,9.9264-.4149,12.3395a96.6913,96.6913,0,0,1,.46,10.2388l-1.998-.46s.5745-16.1437,0-21.1994-4.1366-14.3631-4.1366-14.3631l1.3405-.46Z" fill="#fbdb8a"/><path d="M53.826,165.7646l3.2824-.115A77.0133,77.0133,0,0,1,58.2127,180.44c0,8.1953,5.1274,21.2622,5.1274,21.2622s-10.25,1.2163-13.6973,1.3312a12.4924,12.4924,0,0,1-6.6437-2.1453s2.0442-9.2705,1.47-17.084-2.6635-9.59-2.26-14.7078c.67-8.4879,8.35-5.5154,8.35-5.5154Z" fill="#fbdb8a"/><path d="M57.1084,165.65s-5.2856-2.5279-6.09-4.1366a5.4713,5.4713,0,0,0-.46,2.0683c.1149.6894,5.1707,5.5154,5.1707,5.5154Z" fill="#f4cf7a"/><path d="M52.73,166.2531c-1.2965-6.524,2.1737-8.4421,5.9685-10.768a19.6688,19.6688,0,0,0,6.028-6.2474s-1.469-4.7741-5.7535-5.7534-9.7568,1.6922-11.14,8.4465c-.98,4.7882-2.262,6.4761-5.5085,8.8137-3.9163,2.82-5.0882,10.0064-.5194,13.47,4.2264,3.2039,1.7832-4.4055,3.3508-8.6764.2653-.7227,3.552,2.9513,5.3874,3.5588C52.47,169.7345,52.9383,167.3025,52.73,166.2531Z" fill="#3d4177"/><path d="M57.7978,163.1217a2.87,2.87,0,0,1-.6894,2.5279l1.9533,2.7578s.5746-2.1832,0-3.1025S57.7978,163.1217,57.7978,163.1217Z" fill="#f4cf7a"/><path d="M47.6718,167.2734c1.1342,2.7352,4.4645,11.7187,6.5877,17.1683,0,0,15.42,4.9394,22.0148,6.6007l-2.29,2.4128s-18.8069-2.88-22.8856-4.78c-4.1376-1.9281-8.0563-15.1895-8.752-18.67C41.3413,164.9746,46.447,164.32,47.6718,167.2734Z" fill="#feadae"/><path d="M74.6656,191.4207l1.6087-.3782s3.3089-.3027,4.3681-.454,2.3264,1.0592,3.7733,1.5132a13.7723,13.7723,0,0,1,2.8493,1.3536h-1.156l-2.3573.3865-2.1259-.3865a20.9186,20.9186,0,0,0-3.99,0,17.2575,17.2575,0,0,1-3.6512,0Z" fill="#feadae"/><polygon points="85.186 193.885 88.383 193.885 91.58 173.486 89.149 173.486 85.186 193.885" fill="#d6d6d6"/><polygon points="86.103 193.885 98.582 193.885 101.779 173.486 89.301 173.486 86.103 193.885" fill="#e8e8e8"/><rect x="85.1855" y="193.4224" width="13.5639" height="1.5217" transform="translate(183.9349 388.3664) rotate(-180)" fill="#d6d6d6"/><rect x="68.0835" y="193.4224" width="17.102" height="1.5217" transform="translate(153.269 388.3664) rotate(-180)" fill="#d6d6d6"/><path d="M92.9567,184.6774c-.3612,1.5616-.107,3.2481.5678,3.7669s1.5145-.3264,1.8755-1.888.107-3.2481-.5677-3.7669S93.3179,183.1159,92.9567,184.6774Z" fill="#d6d6d6"/><path d="M188.27,149.7048a7.4257,7.4257,0,0,0,6.0346,3.8776c4.3184.5073-2.1039-3.4471-2.1039-3.4471Z" fill="#3d4177"/><path d="M202.782,167.1406a23.039,23.039,0,0,1-2.31.74c-1.701.4329-3.7132.6842-3.6786-.5934.0069-.2793.0069-.5586,0-.8239v-.007a.4725.4725,0,0,0,0-.14,26.6566,26.6566,0,0,0-.2351-3.1627l6.2233-.4328v.0838C202.8442,164.9693,202.782,167.1406,202.782,167.1406Z" fill="#feadae"/><path d="M202.782,167.1406a23.039,23.039,0,0,1-2.31.74l-.0207-.007s-3.4228-.6214-3.6579-1.41v-.007a.4725.4725,0,0,0,0-.14.59.59,0,0,1,.29-.3351,8.5987,8.5987,0,0,1,3.3323-.95,1.5764,1.5764,0,0,0,1.3863-1.6c-.0048-.2806-.01-.4869-.01-.4869l.9888-.14C202.8442,164.9693,202.782,167.1406,202.782,167.1406Z" fill="#feadae"/><path id="_Path_5" data-name="&lt;Path&gt;" d="M176.9193,252.3971a2.5639,2.5639,0,0,1-1.51.5637,2.4767,2.4767,0,0,1-1.5633-.5637l-.23-1.318,3.3025-.704Z" fill="#feadae"/><path d="M197.4024,214.2242c-.0207,1.4172-.3942,3.6862-2.5032,4.3285-3.1462.9494-5.4764.4119-9.1274-.23a35.4307,35.4307,0,0,1-4.1557-1.0193c-1.5835-.4817-2.9595-.9914-3.7685-1.3055a.255.255,0,0,0-.3389.2932c.6984,3.4489.2835,20.6794.1106,22.6761-.2351,2.681-.2973,12.3294-.2973,12.3294s-.2213.07-.5255.14c-.1522.0349-.3319.0768-.5186.1047a4.4583,4.4583,0,0,1-.6016.0489,17.6144,17.6144,0,0,1-2.3164-.2863s-4.19-26.5579-4.6329-33.8954.2489-7.945,3.5541-9.4949c3.3053-1.5569,25.55-2.1085,25.55-2.1085C201.4337,206.0767,194.6227,213.6378,197.4024,214.2242Z" fill="#2b3990"/><path id="_Path_6" data-name="&lt;Path&gt;" d="M173.8449,252.3971a4.94,4.94,0,0,0,1.5531.3255,3.7123,3.7123,0,0,0,1.5295-.3255,4.8288,4.8288,0,0,1,.7385,4.2833.3039.3039,0,0,1-.2845.1946H166.8148a.2377.2377,0,0,1-.2395-.2314.8906.8906,0,0,1,.7428-.88c.9751-.3018,1.9816-.4685,2.7365-.7384s1.8387-1.39,2.4456-1.5959A3.3,3.3,0,0,0,173.8449,252.3971Z" fill="#473e73"/><path id="_Path_7" data-name="&lt;Path&gt;" d="M198.571,252.3971a2.5639,2.5639,0,0,1-1.51.5637,2.477,2.477,0,0,1-1.5633-.5637l-.23-1.318,3.3025-.875Z" fill="#2b3990"/><path d="M208.7286,218.4969c-.4426-.0349-.9473-.1047-1.5213-.1746-.5877-.0768-1.1893-.1815-1.784-.3141a35.875,35.875,0,0,1-4.0035-1.1938c-.8782-.3212-1.625-.6144-2.1367-.8168a.2535.2535,0,0,0-.3389.2932c.0415.1815.0691.391.1038.6423.0968.8169.1659,1.9968.2143,3.3931.2074,6.3323-.0761,17.0909-.2074,18.6407-.2351,2.681-.2974,12.3294-.2974,12.3294s-.1728.0489-.4218.1117a5.6694,5.6694,0,0,1-.6223.1326,4.4564,4.4564,0,0,1-.6016.0489c-.7883,0-1.9845-.1467-1.9845-.1467s-4.5222-26.6975-4.9648-34.0351.0207-9.1528,3.326-10.7027a13.6057,13.6057,0,0,1,3.8308-.8378.3072.3072,0,0,1,.0761-.007,87.5146,87.5146,0,0,1,9.6391-.3561h.3527C207.56,205.8743,211.5153,215.1737,208.7286,218.4969Z" fill="#2b3990"/><path id="_Path_8" data-name="&lt;Path&gt;" d="M195.4965,252.3971a4.94,4.94,0,0,0,1.5531.3255,3.7124,3.7124,0,0,0,1.5295-.3255,4.8288,4.8288,0,0,1,.7385,4.2833.3039.3039,0,0,1-.2845.1946H188.4664a.2377.2377,0,0,1-.2395-.2314.8906.8906,0,0,1,.7428-.88c.9751-.3018,1.9816-.4685,2.7365-.7384s1.8387-1.39,2.4456-1.5959A3.3,3.3,0,0,0,195.4965,252.3971Z" fill="#473e73"/><path d="M199.2624,220.3261c.2074,6.3323-.0761,17.0909-.2074,18.6407-.2351,2.681-.2974,12.3294-.2974,12.3294s-.1728.0489-.4218.1117c-.2835-4.4751-.5324-11.9105-.4425-18.99a68.1149,68.1149,0,0,0-.975-13.9631,16.144,16.144,0,0,1,2.13-1.522C199.1449,217.75,199.214,218.93,199.2624,220.3261Z" fill="#292956" opacity="0.5"/><path d="M177.5088,216.2907c.6984,3.4489.2835,20.6794.1106,22.6761-.2351,2.681-.2973,12.3294-.2973,12.3294s-.2213.07-.5255.14c.0562-6.42.1-18.09-.1539-26.38-.183-5.98-.6812-9.9921-.6812-9.9921s3.6632-.7978,3.677-.7978,1.3967,2.1363,1.9776,3.037c-1.5835-.4817-2.9595-.9914-3.7685-1.3055A.255.255,0,0,0,177.5088,216.2907Z" fill="#293882"/><path d="M208.7291,218.4969a3.4844,3.4844,0,0,1-1.12.8866c-2.3579,1.1869-5.6217,1.2218-8.346.9425a34.1591,34.1591,0,0,1-5.1515-.9425l3.2084-13.5174v-.007h.0761l9.6391-.3561.3457-.014a.0217.0217,0,0,0,.0069.014C207.56,205.8731,211.5156,215.1737,208.7291,218.4969Z" fill="#3d3d72"/><path d="M188.6211,206.1547s.7994.0076,1.4007-2.1887l16.8584-.5236,1.4093,4.4307Z" fill="#3d3d72"/><path d="M152.0524,188.7229a1.59,1.59,0,0,0,1.1525.3054,1.0743,1.0743,0,0,0,.6771.1746,6.4557,6.4557,0,0,0,1.3109-.24s-.1009.2982.389.4a8.1623,8.1623,0,0,0,1.6842-.0758,2.8258,2.8258,0,0,1,1.2937.1627,5.3725,5.3725,0,0,0,1.1133.3058,4.6218,4.6218,0,0,0,1.57-.2327s-2.8523-1.9054-2.91-1.9054-2.3337-.4073-2.42-.3927S152.0524,188.7229,152.0524,188.7229Z" fill="#e5989b"/><path d="M162.943,187.5593l-2.3337-.4945a19.2419,19.2419,0,0,0-2.42-1.1055c-.5725-.2023-2.7777.76-4.246,1.3964a14.57,14.57,0,0,0-2.4094,1.14c-.3457.3491.5217.4958,1.545.1364.6629-.1689,1.3259-.4969,1.8908-.6545a2.7329,2.7329,0,0,1,2.2657.3019c.2923.1883.5011.5314.9863.8545a4.2571,4.2571,0,0,0,2.95.7818c.317.0279,2.06.6108,2.06.6108" fill="#feadae"/><path d="M194.3047,168.5389a7.0431,7.0431,0,0,1,1.208-2.0587c.5907-.4978,6.4414-1.5018,7.8048-.7131a2.3909,2.3909,0,0,1,1.0091,2.4728" fill="#f4cf7a"/><path d="M211.46,189.7747c-.8091,6.1578-2.1574,11.7919-3.7271,13.67a.0068.0068,0,0,0-.0069.007,2.0522,2.0522,0,0,1-.6707.5515c-1.57.7261-4.7435.0628-6.8593-.0209-2.1159-.0907-5.7461.6074-7.91.4329-2.1574-.1745-2.2611-.4468-2.2611-.4468a2.5866,2.5866,0,0,1-1.3069-.9285,2.0541,2.0541,0,0,1-.1452-2.0526c1.5627-3.5606.7191-10.9819.0484-18.0822-.09-.95-.2144-1.871-.3458-2.7577-.8021-5.1873-2.0536-9.1388.3458-10.5072,3.54-2.0177,11.6029-3.421,17.259-2.3179a.504.504,0,0,0,.0553.014,8.5006,8.5006,0,0,1,5.0685,2.5622C212.67,171.9857,212.5663,181.369,211.46,189.7747Z" fill="#fbdb8a"/><path d="M211.46,189.7747c-.6846-1.2846-.4184-3.4151-.1141-6.7244.456-5.0019.392-8.7352-.4034-11.0833a6.747,6.747,0,0,0-5.0074-4.631,8.5006,8.5006,0,0,1,5.0685,2.5622C212.67,171.9857,212.5663,181.369,211.46,189.7747Z" opacity="0.08"/><path d="M207.726,203.4516a2.0522,2.0522,0,0,1-.6707.5515c-1.57.7261-4.7435.0628-6.8593-.0209-2.1159-.0907-5.7461.6074-7.91.4329-2.1574-.1745-2.2611-.4468-2.2611-.4468a2.5866,2.5866,0,0,1-1.3069-.9285,2.0541,2.0541,0,0,1-.1452-2.0526c1.5627-3.5606.7191-10.9819.0484-18.0822-.09-.95-.2144-1.871-.3458-2.7577a28.6737,28.6737,0,0,1,5.6632-1.3614s-1.5766,6.067-2.6138,8.8317c0,0-.3457,8.7828-.809,11.4009s1.2654,4.538,5.9328,4.4263C201.1087,203.326,205.859,204.7223,207.726,203.4516Z" opacity="0.08"/><path d="M194.9684,175.5324c-.1937,2.2341-4.4047,11.38-7.5025,16.4346-1.0925,1.78-2.0537,3.0509-2.6484,3.33a5.8959,5.8959,0,0,1-3.077.4119,62.695,62.695,0,0,1-7.7652-1.6266c-5.1307-1.3405-12.3773-3.7352-12.3773-3.7352l.2005-1.0611.4495-2.4086s12.4188.7191,18.0889,1.71c1.8877-5.6341,5.594-14.2494,6.9769-17.4259a3.3548,3.3548,0,0,1,2.31-1.9478,2.8628,2.8628,0,0,1,1.1686-.014C193.0807,169.647,195.1551,173.3891,194.9684,175.5324Z" fill="#fbdb8a"/><path d="M187.466,191.967c-1.0925,1.78-2.0537,3.0509-2.6484,3.33a5.8959,5.8959,0,0,1-3.077.4119,62.695,62.695,0,0,1-7.7652-1.6266c-5.1307-1.3405-12.3773-3.7352-12.3773-3.7352l.2005-1.0611c2.3787.7819,14.39,4.7126,18.3862,5.18,4.4531.5236,5.3935-.07,7.0392-2.234A1.5713,1.5713,0,0,1,187.466,191.967Z" opacity="0.08"/><path d="M189.6234,169.2141c-2.5723,2.0665-8.3876,19.5972-8.3876,19.5972a4.12,4.12,0,0,0-.8989-.2235c1.8877-5.6341,5.594-14.2494,6.9769-17.4259A3.3548,3.3548,0,0,1,189.6234,169.2141Z" opacity="0.08"/><path d="M191.7831,152.1861s-.0737,1.8454.0249,3.9707a11.6308,11.6308,0,0,0-.3328,2.89c.0663.4823.7134.7606.8122,1.1832a5.7659,5.7659,0,0,0,.5329,1.4972c.8215,1.4425,2.32,3.6863,7.7791,2.29s5.529-7.6285,4.8979-11.5988c-.7491-4.7126-5.3589-5.9925-8.5857-5.5853S192.4169,149.7425,191.7831,152.1861Z" fill="#feadae"/><path d="M193.3676,151.2843a4.6208,4.6208,0,0,1,1.4118,2.6472c.2016,1.6-.2305,1.9491.6339,2.5018s1.5846.349,1.7,1.0472.0193,4.2505.8019,5.2379,2.05-8.38,2.05-8.38l-2.2473-3.0545Z" fill="#feadae"/><path d="M193.915,152.3606c1.4789.0884,1.4406,2.9672,1.4982,3.4326.0313.2529.6579.5572,1.2238.7826a1.4461,1.4461,0,0,1,.9033,1.34c.011,1.8515.1333,5.6072.94,5.877,1.0732.3591,4.318.5672,4.6979.0436s3.6931-5.4225,3.7023-10.9523c.0092-5.5852-3.6668-7.2084-6.108-7.2725-2.2041-.0577-3.8772,1.4632-6.108.4073C187.9656,142.8483,184.1769,151.7788,193.915,152.3606Z" fill="#3d4177"/><path d="M220.0308,254.6689c-.01,0-.02.0031-.03.0031a4.9646,4.9646,0,0,0-4.8408-3.8977h-6.4267V239.7451h-.9793v-23.654h-.6476v-.196h-.9593v.196H204.62v23.654h-.7837v11.0292h-5.7428a4.965,4.965,0,0,0-4.8459,3.9169,2.1727,2.1727,0,1,0,.6776.0267,4.298,4.298,0,0,1,4.1683-3.28h7.7614v3.2646a2.2057,2.2057,0,1,0,.6637,0V251.438H215.16a4.2987,4.2987,0,0,1,4.1863,3.35,2.18,2.18,0,1,0,.6847-.1192Z" fill="#524e64"/><path d="M203.0253,168.1874h11.8189A10.0457,10.0457,0,0,1,224.89,178.2331v25.3564a10.0456,10.0456,0,0,1-10.0456,10.0456H203.0253A10.0457,10.0457,0,0,1,192.98,203.5893V178.2331a10.0457,10.0457,0,0,1,10.0457-10.0457Z" fill="#524e64"/><path d="M178.2407,211.449H217.16a4.9706,4.9706,0,0,1,0,9.9412H178.2407a4.9706,4.9706,0,0,1,0-9.9412Z" fill="#524e64"/><rect x="244.2984" y="104.8132" width="42.1025" height="88.0437" fill="#fff"/><path d="M281.6075,104.8313a4.3427,4.3427,0,0,1,4.3378,4.3377v78.8618a4.3427,4.3427,0,0,1-4.3378,4.3377H249.09a4.3427,4.3427,0,0,1-4.3378-4.3377V109.1691a4.3427,4.3427,0,0,1,4.3378-4.3377h32.5174m0-2.1233H249.09a6.461,6.461,0,0,0-6.461,6.461v78.8618a6.461,6.461,0,0,0,6.461,6.461h32.5174a6.461,6.461,0,0,0,6.461-6.461V109.1691a6.461,6.461,0,0,0-6.461-6.461Z" fill="#e2e2e2"/><path d="M251.3378,103.7141V104.82h1.88a.6894.6894,0,0,1,.68.6986s.7159,2.5682,1.9263,2.5682h19.05c1.21,0,1.9263-2.5682,1.9263-2.5682a.6894.6894,0,0,1,.68-.6986h1.88v-1.1058Z" fill="#e2e2e2"/><circle cx="270.0312" cy="105.9115" r="0.8008" fill="#395682" opacity="0.23"/><path d="M267.5762,106.2986h-5.0207a.3428.3428,0,0,1-.3428-.3428h0a.3428.3428,0,0,1,.3428-.3428h5.0207a.3428.3428,0,0,1,.3428.3428h0A.3428.3428,0,0,1,267.5762,106.2986Z" fill="#395682" opacity="0.23"/><path d="M277.7084,191.2048H254.17a.4144.4144,0,0,1-.4144-.4144h0a.4144.4144,0,0,1,.4144-.4144h23.5381a.4144.4144,0,0,1,.4144.4144h0A.4144.4144,0,0,1,277.7084,191.2048Z" fill="#e2e2e2"/><g opacity="0.25"><rect x="248.8675" y="115.5226" width="32.9628" height="13.9279" rx="2.3205" ry="2.3205" fill="#a8a7a5"/><rect x="251.0495" y="118.1225" width="18.0135" height="1.8571" fill="#f7f7f7"/><rect x="251.0495" y="121.2795" width="18.0135" height="1.8571" fill="#f7f7f7"/><rect x="251.0495" y="124.4365" width="9.0996" height="1.8571" fill="#f7f7f7"/><rect x="269.063" y="126.2935" width="4.6426" height="1.8571" fill="#f7f7f7"/><rect x="275.0056" y="126.2935" width="4.6426" height="1.8571" fill="#f7f7f7"/><rect x="249.0016" y="134.8476" width="32.9628" height="3.0521" fill="#a8a7a5"/><rect x="249.0016" y="139.731" width="32.9628" height="3.0521" fill="#a8a7a5"/><rect x="248.8675" y="150.6218" width="32.9628" height="13.9279" rx="2.6042" ry="2.6042" fill="#a8a7a5"/><rect x="251.0495" y="153.2217" width="18.0135" height="1.8571" fill="#f7f7f7"/><rect x="251.0495" y="156.3787" width="18.0135" height="1.8571" fill="#f7f7f7"/><rect x="251.0495" y="159.5357" width="9.0996" height="1.8571" fill="#f7f7f7"/><rect x="269.063" y="161.3928" width="4.6426" height="1.8571" fill="#f7f7f7"/><rect x="275.0056" y="161.3928" width="4.6426" height="1.8571" fill="#f7f7f7"/><rect x="249.0016" y="169.9468" width="32.9628" height="3.0521" fill="#a8a7a5"/><rect x="249.0016" y="174.8302" width="32.9628" height="3.0521" fill="#a8a7a5"/></g><ellipse cx="18.4078" cy="256.5865" rx="13.4078" ry="1.4145" fill="#e9e8ea"/><path d="M5.5141,234.6784c-.019,13.6956,3.3833,21.6161,7.6515,21.9716l.0694-50.1528C11.79,209.3252,5.5313,222.2852,5.5141,234.6784Z" fill="#f4cf7a"/><path d="M13.5314,205.9293s-.1077.1987-.2964.5679L13.1656,256.65c.0982.0082.1965.0171.2956.0172,4.4058.0061,7.9884-7.9559,8.0078-21.9668S13.5314,205.9293,13.5314,205.9293Z" fill="#fbdb8a"/><path d="M13.408,245.3561q-.0069-5.0623,0-10.1247.0023-10.1253-.1263-20.25a.0583.0583,0,0,0-.1165,0q-.099,6.84-.1429,13.68a27.3089,27.3089,0,0,0-4.1671-4.1143c-.0789-.0593-.1971.0585-.1379.1375a28.0753,28.0753,0,0,0,4.3028,4.35c-.0141,2.0655-.0322,4.1307-.0374,6.1962q-.0127,5.0624-.0283,10.1247c-.0139,3.3547-.2321,6.7811.0275,10.1249a.1855.1855,0,0,0,.3707,0C13.6214,252.1383,13.4126,248.7107,13.408,245.3561Z" fill="#2e5175"/><path d="M13.2469,241.13a57.1135,57.1135,0,0,0-6.9528-6.9422.0636.0636,0,0,0-.09.09A57.12,57.12,0,0,0,13.127,241.25.0847.0847,0,0,0,13.2469,241.13Z" fill="#2e5175"/><path d="M18.5278,229.5771c-.9782.868-1.92,1.7759-2.8718,2.6727a16.7029,16.7029,0,0,0-2.43,2.5661.0959.0959,0,0,0,.13.1305,16.68,16.68,0,0,0,2.5727-2.4224c.9-.9491,1.81-1.8886,2.6808-2.8645A.0583.0583,0,0,0,18.5278,229.5771Z" fill="#2e5175"/><path d="M18.3481,242.4063a49.9788,49.9788,0,0,0-4.8488,4.7533.1059.1059,0,0,0,.15.15,49.98,49.98,0,0,0,4.7667-4.8358A.0477.0477,0,0,0,18.3481,242.4063Z" fill="#2e5175"/><path d="M13.5866,251.4525a44.7283,44.7283,0,0,0-5.7232-5.6867.0689.0689,0,0,0-.0975.0973,44.7136,44.7136,0,0,0,5.6707,5.7389A.1059.1059,0,0,0,13.5866,251.4525Z" fill="#2e5175"/><path d="M19.2933,242.0116c-.0129,9.3074,2.2993,14.69,5.2,14.9317L24.54,222.86C23.5581,224.7817,19.305,233.5893,19.2933,242.0116Z" fill="#f4cf7a"/><path d="M24.7418,222.4739s-.0732.135-.2014.3859l-.0472,34.0835c.0667.0056.1335.0116.2009.0117,2.9942.0041,5.4289-5.4068,5.442-14.9285S24.7418,222.4739,24.7418,222.4739Z" fill="#fbdb8a"/><path d="M24.6579,249.2681q-.0047-3.44,0-6.8807.0016-6.8811-.0858-13.7616a.04.04,0,0,0-.0792,0q-.0673,4.6483-.0971,9.297a18.5589,18.5589,0,0,0-2.8319-2.7961c-.0536-.04-.1339.04-.0937.0934a19.08,19.08,0,0,0,2.9241,2.956c-.01,1.4037-.0219,2.8072-.0254,4.2109q-.0087,3.44-.0192,6.8807c-.0094,2.28-.1577,4.6084.0187,6.8808a.126.126,0,0,0,.2519,0C24.8029,253.8772,24.661,251.5479,24.6579,249.2681Z" fill="#2e5175"/><path d="M24.5484,246.3963a38.8139,38.8139,0,0,0-4.7251-4.7179.0432.0432,0,0,0-.0612.061,38.818,38.818,0,0,0,4.7048,4.7382A.0576.0576,0,0,0,24.5484,246.3963Z" fill="#2e5175"/><path d="M28.1373,238.5448c-.6648.59-1.3049,1.2069-1.9517,1.8164a11.3512,11.3512,0,0,0-1.6511,1.7439.0652.0652,0,0,0,.0885.0887,11.3355,11.3355,0,0,0,1.7484-1.6462c.6113-.645,1.23-1.2835,1.8219-1.9467A.04.04,0,0,0,28.1373,238.5448Z" fill="#2e5175"/><path d="M28.0151,247.2634a33.9653,33.9653,0,0,0-3.2952,3.23.072.072,0,0,0,.1016.1019,33.9658,33.9658,0,0,0,3.2394-3.2864A.0324.0324,0,0,0,28.0151,247.2634Z" fill="#2e5175"/><path d="M24.7793,253.4111a30.3971,30.3971,0,0,0-3.8895-3.8646.0468.0468,0,0,0-.0662.0661,30.3871,30.3871,0,0,0,3.8538,3.9A.072.072,0,0,0,24.7793,253.4111Z" fill="#2e5175"/><path d="M265.9569,231.7665c2.1325,10.523,5.9875,16.0737,9.3217,15.6775L267.47,208.9094C266.8028,211.3083,264.0271,222.2444,265.9569,231.7665Z" fill="#f4cf7a"/><path d="M267.6081,208.4268s-.0516.17-.1386.4826l7.8091,38.5346c.0768-.0092.1536-.0177.23-.0332,3.3852-.686,4.8889-7.3634,2.7073-18.1286S267.6081,208.4268,267.6081,208.4268Z" fill="#fbdb8a"/><path d="M273.6944,238.731q-.799-3.8875-1.5875-7.7771-1.5856-7.7778-3.2716-15.5345a.0457.0457,0,0,0-.09.0182q.9964,5.2694,2.0351,10.5305a21.4183,21.4183,0,0,0-3.846-2.5071c-.07-.0332-.1421.0758-.0844.1272a22.015,22.015,0,0,0,3.987,2.6666c.3129,1.5887.6229,3.178.9427,4.7653q.7837,3.89,1.5655,7.7815c.5152,2.579.8848,5.2451,1.6084,7.7728a.1454.1454,0,0,0,.2848-.0577C274.9215,243.907,274.2238,241.3069,273.6944,238.731Z" fill="#2e5175"/><path d="M272.9081,235.51a44.7775,44.7775,0,0,0-6.429-4.2425.05.05,0,0,0-.0551.0831,44.7677,44.7677,0,0,0,6.4107,4.27A.0664.0664,0,0,0,272.9081,235.51Z" fill="#2e5175"/><path d="M275.1533,225.808c-.6153.82-1.1965,1.6651-1.7869,2.5032a13.0968,13.0968,0,0,0-1.4639,2.3519.0752.0752,0,0,0,.1205.08,13.086,13.086,0,0,0,1.5964-2.264c.5421-.87,1.0942-1.7345,1.61-2.62A.0457.0457,0,0,0,275.1533,225.808Z" fill="#2e5175"/><path d="M277.0265,235.6906a39.1907,39.1907,0,0,0-2.9794,4.4112.0831.0831,0,0,0,.1384.0918,39.1793,39.1793,0,0,0,2.9033-4.4618A.0374.0374,0,0,0,277.0265,235.6906Z" fill="#2e5175"/><path d="M274.7872,243.3857a35.0626,35.0626,0,0,0-5.2876-3.4708.054.054,0,0,0-.06.09,35.066,35.066,0,0,0,5.2556,3.5192A.0831.0831,0,0,0,274.7872,243.3857Z" fill="#2e5175"/><path d="M278.1411,231.4358c-3.2662,8.3235-3.08,13.9483-.5687,15.1788l11.9606-30.48C287.9821,217.51,281.0967,223.9038,278.1411,231.4358Z" fill="#f4cf7a"/><path d="M289.8482,215.8593s-.1127.0952-.3152.2749l-11.9606,30.48c.0578.0283.1154.0571.1756.0807,2.6777,1.0507,6.7482-2.9394,10.09-11.4545S289.8482,215.8593,289.8482,215.8593Z" fill="#fbdb8a"/><path d="M280.4037,239.8046q1.1988-3.08,2.4059-6.1566,2.4076-6.1565,4.7354-12.3434a.0381.0381,0,0,0-.0708-.0278q-1.6857,4.1357-3.3379,8.2847a17.829,17.829,0,0,0-1.5562-3.4921.0661.0661,0,0,0-.1165.0508,18.3294,18.3294,0,0,0,1.5828,3.6675c-.4994,1.2526-1.0012,2.5041-1.4952,3.7589q-1.2108,3.0753-2.4232,6.15c-.8056,2.0366-1.7526,4.0683-2.3894,6.1632a.1211.1211,0,0,0,.2253.0884C278.9218,243.9794,279.6093,241.8455,280.4037,239.8046Z" fill="#2e5175"/><path d="M281.31,237.1967a37.2874,37.2874,0,0,0-2.5781-5.8737.0415.0415,0,0,0-.076.0332,37.2914,37.2914,0,0,0,2.5528,5.8848A.0553.0553,0,0,0,281.31,237.1967Z" fill="#2e5175"/><path d="M287.2667,231.4264c-.8011.2954-1.59.6236-2.3815.9428a10.9047,10.9047,0,0,0-2.0872.983.0626.0626,0,0,0,.0482.11,10.89,10.89,0,0,0,2.14-.8616c.7726-.3634,1.5495-.7183,2.3109-1.1047A.0381.0381,0,0,0,287.2667,231.4264Z" fill="#2e5175"/><path d="M284.1087,239.1848a32.63,32.63,0,0,0-4.078,1.7381.0692.0692,0,0,0,.0553.1267,32.63,32.63,0,0,0,4.0477-1.8078A.0311.0311,0,0,0,284.1087,239.1848Z" fill="#2e5175"/><path d="M279.0636,243.5541a29.2016,29.2016,0,0,0-2.1288-4.818.045.045,0,0,0-.0824.036,29.192,29.192,0,0,0,2.0844,4.8373A.0692.0692,0,0,0,279.0636,243.5541Z" fill="#2e5175"/><path d="M260.4624,236.5816c3.434,7.2626,7.2288,10.6044,9.58,9.7194l-12.5753-26.5951C257.4125,221.568,257.355,230.01,260.4624,236.5816Z" fill="#f4cf7a"/><path d="M257.4814,219.33s-.0071.1324-.0143.3755l12.5753,26.5951c.0541-.02.1084-.04.1609-.0652,2.3363-1.1047,2.2326-6.2249-1.28-13.6547S257.4814,219.33,257.4814,219.33Z" fill="#fbdb8a"/><path d="M267.3309,240.2551q-1.2768-2.681-2.5463-5.3654-2.5449-5.3663-5.1592-10.6993a.0342.0342,0,0,0-.0617.0293q1.6676,3.65,3.3645,7.2855a16.0242,16.0242,0,0,0-3.243-1.1324.0594.0594,0,0,0-.0384.1075,16.4659,16.4659,0,0,0,3.374,1.223c.5119,1.0981,1.0217,2.1971,1.5384,3.293q1.2662,2.686,2.5311,5.3726c.8363,1.7812,1.5822,3.6518,2.5607,5.3585a.1088.1088,0,0,0,.1966-.093C269.1494,243.7955,268.1768,242.0316,267.3309,240.2551Z" fill="#2e5175"/><path d="M266.1828,238.0562a33.5008,33.5008,0,0,0-5.43-1.93.0373.0373,0,0,0-.0251.07,33.5045,33.5045,0,0,0,5.422,1.9538A.05.05,0,0,0,266.1828,238.0562Z" fill="#2e5175"/><path d="M266.076,230.6057c-.3.706-.571,1.424-.85,2.1385a9.7992,9.7992,0,0,0-.6422,1.9709.0563.0563,0,0,0,.1018.0364,9.7882,9.7882,0,0,0,.7542-1.9306c.238-.7292.4843-1.456.7-2.192A.0342.0342,0,0,0,266.076,230.6057Z" fill="#2e5175"/><path d="M269.2069,237.45a29.3266,29.3266,0,0,0-1.3742,3.7383.0621.0621,0,0,0,.1169.0419,29.31,29.31,0,0,0,1.31-3.7613A.028.028,0,0,0,269.2069,237.45Z" fill="#2e5175"/><path d="M268.9585,243.4408a26.2369,26.2369,0,0,0-4.463-1.5743.04.04,0,0,0-.0272.076,26.2331,26.2331,0,0,0,4.4483,1.6152A.0621.0621,0,0,0,268.9585,243.4408Z" fill="#2e5175"/><path d="M285.7177,253.8285l.0038-9.6039-23.1995-.0092,0,1.2523,16.1265,16.1392A7.8184,7.8184,0,0,0,285.7177,253.8285Z" fill="#cdd1d3"/><path d="M262.5214,245.7581l-.0033,8.3516a7.8193,7.8193,0,0,0,7.8162,7.8224l7.5609.003c.2541,0,.5048-.0141.7527-.0377Z" fill="#e2e2e2"/><rect x="73.9979" y="198.402" width="3.9377" height="58.8351" fill="#a8a7a5"/></g></g></svg>